<?xml version="1.0" encoding="utf-8"?>
<!-- Generator: Adobe Adobe Illustrator 24.2.0, SVG Export Plug-In . SVG Version: 6.00 Build 0)  -->
<svg version="1.1" xmlns="http://www.w3.org/2000/svg" xmlns:xlink="http://www.w3.org/1999/xlink" x="0px" y="0px"
	 width="219.51px" height="180.86px" viewBox="0 0 219.51 180.86" style="enable-background:new 0 0 219.51 180.86;"
	 xml:space="preserve">
<style type="text/css">
	.st0{fill:#95D3EB;}
	.st1{fill:#50A617;}
	.st2{fill:#75DA32;}
	.st3{fill:#8B724A;}
	.st4{fill:#C5B59C;}
	.st5{fill:#CBB888;}
	.st6{fill:#374A47;}
	.st7{fill:#D5D1AB;}
	.st8{fill:#DFDFDF;}
	.st9{fill:#605B2A;}
	.st10{fill:#836724;}
	.st11{fill:#836723;}
	.st12{fill:#615C2A;}
	.st13{fill:#997829;}
	.st14{fill:#935012;}
	.st15{fill:#393129;}
</style>
<g id="Layout1">
	<g id="Sora_1_">
		<g id="Kusa_6_">
		</g>
	</g>
</g>
<g id="Layout2">
	<g id="Sora_2_">
		<g id="Kusa_7_">
		</g>
	</g>
</g>
<g id="BG">
</g>
<g id="sora">
</g>
<g id="Jimen">
</g>
<g id="Sogen">
	<g id="Kusa">
	</g>
	<g id="Kusa_1_">
	</g>
	<g id="Kusa_2_">
	</g>
	<g id="Kusa_3_">
	</g>
	<g id="Kusa_4_">
	</g>
</g>
<g id="Saku">
</g>
<g id="Uribo">
	<g>
		<path class="st10" d="M72.26,86.91c-0.02-2.8-0.05-5.62-0.09-8.44l-0.22-0.44l-0.85-1.84l-0.8-1.89l-0.77-1.9l-0.73-1.92
			l-0.7-1.91l-0.67-1.9l-0.64-1.85l-0.62-1.84l-0.6-1.8l-0.59-1.8l-0.59-1.8l-0.59-1.81l-0.61-1.83l-0.61-1.87l-0.62-1.9l-0.64-1.94
			l-0.64-1.98l-0.65-2.02l-0.65-2.05l-0.65-2.07l-0.64-2.05l-0.63-2.02l-0.28-0.92c-0.19,8.09,0.02,17.63,0.21,25.52l0.49,1.42
			l0.54,1.56l0.53,1.52l0.52,1.51l0.52,1.5l0.52,1.49l0.53,1.5l0.54,1.53l0.56,1.54l0.58,1.58l0.62,1.58l0.64,1.61l0.67,1.58
			l0.71,1.57l0.75,1.53l0.77,1.46l0.8,1.36l0.82,1.25l0.84,1.16l0.85,1.05l0.88,0.98l0.88,0.9l0.34,0.32
			C72.3,90.39,72.28,88.65,72.26,86.91z"/>
		<path class="st11" d="M82.39,99.43l-0.08-0.04l-0.48-0.25l-0.56-0.32l-0.64-0.4l-0.72-0.47l-0.77-0.51l-0.25-0.17l0.13-0.83
			l0.31-2.04l0.32-2.18l0.32-2.34l0.08-0.58l-0.49-0.45l-1.01-1.01l-1-1.08l-0.99-1.17l-0.96-1.27l-0.95-1.39l-0.93-1.51l-0.9-1.64
			l-0.88-1.75l-0.85-1.84l-0.8-1.89l-0.77-1.9l-0.73-1.92l-0.7-1.91l-0.67-1.9l-0.09-0.26c-4.87-8.13-9.9-15.47-15.17-21.5
			l0.17,0.54l0.52,1.61l0.53,1.65l0.55,1.67l0.56,1.71l0.57,1.73l0.58,1.71l0.57,1.69l0.56,1.65l0.56,1.62l0.55,1.58l0.54,1.56
			l0.53,1.52l0.52,1.51l0.52,1.5l0.52,1.49l0.53,1.5l0.54,1.53l0.56,1.55l0.58,1.58l0.62,1.58L64.01,79l0.67,1.58l0.71,1.57
			l0.75,1.53l0.77,1.46l0.8,1.36l0.82,1.25l0.84,1.16l0.85,1.05l0.88,0.98l0.88,0.9l0.89,0.83l0.9,0.78l0.92,0.76l0.92,0.72
			l0.92,0.69l0.9,0.67l0.87,0.62l0.58,0.4l-0.17,1.04l-0.3,1.71l-0.3,1.55l-0.3,1.38l-0.3,1.23l-0.31,1.09l-0.35,0.97l-0.37,0.82
			L82.39,99.43z"/>
		<path class="st11" d="M83.46,99.63l0.13-0.08l0.07-0.12l0.02-0.12l-0.01-0.13l-0.03-0.1l-0.04-0.1l-0.04-0.07l-0.03-0.04
			l-0.03-0.03l-0.03-0.02l-0.03-0.03l-0.03-0.02l-0.03-0.01l-0.03-0.02l-0.03-0.02l-0.03-0.01l-0.03-0.02l-0.03-0.01l-0.02-0.02
			l-0.02-0.02l-0.02-0.01l-0.02,0l-0.02-0.02l-0.02-0.01l-0.02-0.01l-0.01,0L83.1,98.6l-0.01,0l-0.01,0l-0.01,0l-0.01-0.01l-0.01,0
			l-0.01,0l0,0l-0.64,0.83l0.32,0.13l0.32,0.09l0.24,0.02L83.46,99.63z"/>
		<path class="st11" d="M80.44,101.95c0.1-1.15,0.2-2.3,0.31-3.45l-0.12-0.07l-0.72-0.47l-0.77-0.51l-0.25-0.17l0.13-0.82l0.31-2.04
			l0.32-2.18l0.32-2.34l0.08-0.58l-0.49-0.45l-1.01-1.01l-0.99-1.08l-0.99-1.17l-0.96-1.27l-0.95-1.39l-0.93-1.51l-0.9-1.64
			l-0.88-1.75l-0.85-1.84l-0.21-0.47c0.05,3.28,0.09,6.56,0.12,9.84c0.03,1.79,0.06,3.57,0.09,5.36l0.88,0.89l0.89,0.83l0.9,0.78
			l0.92,0.76l0.92,0.72l0.92,0.69l0.9,0.67l0.87,0.62l0.58,0.4l-0.17,1.04l-0.3,1.71l-0.3,1.55l-0.3,1.38l-0.3,1.23l-0.31,1.09
			l-0.35,0.97l-0.37,0.82L80.44,101.95z"/>
		<path class="st11" d="M82.39,99.43l-0.08-0.04l-0.48-0.25l-0.11-0.06c0.07,0.32,0.14,0.63,0.21,0.95L82.39,99.43z"/>
		<path class="st11" d="M83.46,99.63l0.13-0.08l0.07-0.12l0.02-0.12l-0.01-0.13l-0.03-0.1l-0.04-0.1l-0.04-0.07l-0.03-0.04
			l-0.03-0.03l-0.03-0.02l-0.03-0.03l-0.03-0.02l-0.03-0.02l-0.03-0.02l-0.03-0.02l-0.03-0.01l-0.03-0.02l-0.03-0.01l-0.02-0.02
			l-0.02-0.02l-0.02-0.01l-0.02,0l-0.02-0.02l-0.02-0.01l-0.02-0.01l-0.01,0l-0.02-0.01l-0.01,0l-0.01,0l-0.01,0l-0.01-0.01l-0.01,0
			l-0.01,0l0,0l-0.64,0.83l0.32,0.13l0.32,0.09l0.24,0.02L83.46,99.63z"/>
		<path class="st11" d="M77.59,105.64c-0.04-0.42-0.08-0.84-0.12-1.26l-0.25,0.89l-0.35,0.97l-0.37,0.82L77.59,105.64z"/>
		<path class="st11" d="M75.59,84.7c0.04-0.07,0.08-0.15,0.12-0.22l-0.11-0.15l-0.95-1.39l-0.93-1.51l-0.9-1.64l-0.88-1.75
			l-0.85-1.84l-0.8-1.89l-0.77-1.9l-0.73-1.92l-0.7-1.91l-0.67-1.9l-0.64-1.85L66.2,63l-0.6-1.8l-0.59-1.8l-0.59-1.8l-0.59-1.81
			l-0.61-1.83l-0.61-1.87l-0.62-1.9l-0.64-1.94l-0.49-1.51c0.08,2.61,0.23,5.24,0.48,7.87c0.65,8.38,1.63,16.64,2.84,24.76
			l0.52,1.21l0.71,1.57l0.75,1.53l0.77,1.45l0.8,1.36l0.82,1.25l0.84,1.16l0.85,1.05l0.88,0.98l0.88,0.9l0.89,0.83l0.9,0.78
			l0.92,0.76l0.92,0.72l0.92,0.69l0.08,0.06C76.27,92.01,75.93,88.35,75.59,84.7z"/>
		<path class="st11" d="M83.46,99.63l0.13-0.08l0.07-0.12l0.02-0.12l-0.01-0.13l-0.03-0.1l-0.04-0.1l-0.04-0.07l-0.03-0.04
			l-0.03-0.03l-0.03-0.02l-0.03-0.03l-0.03-0.02l-0.03-0.01l-0.03-0.02l-0.03-0.02l-0.03-0.01l-0.03-0.02l-0.03-0.01l-0.02-0.02
			l-0.02-0.02l-0.02-0.01l-0.02,0l-0.02-0.02l-0.02-0.01l-0.02-0.01l-0.01,0l-0.02-0.01l-0.01,0l-0.01,0l-0.01,0l-0.01-0.01l-0.01,0
			l-0.01,0l0,0l-0.39,0.5c0.1,0.19,0.2,0.36,0.3,0.52l0.08,0.02l0.24,0.02L83.46,99.63z"/>
		<path class="st11" d="M82.39,99.43l-0.08-0.04l-0.48-0.25l-0.56-0.32c0.2,0.42,0.4,0.84,0.61,1.27L82.39,99.43z"/>
		<path class="st11" d="M83.45,99.63l0.13-0.08l0.07-0.12l0.02-0.12l-0.01-0.13l-0.03-0.1l-0.04-0.1l-0.04-0.07l-0.03-0.04
			l-0.03-0.03l-0.03-0.02l-0.03-0.03l-0.03-0.02l-0.03-0.01l-0.03-0.02l-0.03-0.02l-0.03-0.01l-0.03-0.02l-0.03-0.01l-0.02-0.02
			l-0.02-0.02l-0.02-0.01l-0.02,0l-0.02-0.02l-0.02-0.01l-0.02-0.01l-0.01,0l-0.02-0.01l-0.01,0l-0.01,0l-0.01,0l-0.01-0.01l-0.01,0
			l-0.01,0l0,0l-0.64,0.83l0.32,0.13l0.32,0.09l0.24,0.02L83.45,99.63z"/>
		<path class="st11" d="M79.33,94.41l0.32-2.18l0.32-2.34l0.08-0.58l-0.49-0.45l-1.01-1.01l-0.04-0.04c0.03,0.5,0.1,0.99,0.18,1.46
			c-3.25-5.04-5.74-3.65-7.74,1.5l0.15,0.16l0.88,0.9l0.29,0.27c0.24-0.59,0.49-1.13,0.76-1.59c1.27-1.66,2.93-0.84,4.26,0.95
			c0.67,1.1,1.32,2.25,1.96,3.44L79.33,94.41z"/>
		<path class="st11" d="M60.07,58.62c0.96-2.25,1.34-5.6,1.78-8.82l-0.51-1.55l-0.64-1.98l-0.65-2.02l-0.65-2.05l-0.65-2.07
			l-0.64-2.05l-0.63-2.02l-0.61-1.98l-0.59-1.92l-0.08-0.25c-0.26,9.06-0.45,16.49-0.79,19.35c-0.21,4.68,1.67,8.72,3.37,8.51
			C59.25,59.69,59.69,59.34,60.07,58.62z"/>
		<path class="st11" d="M83.68,99.31l-0.01-0.13l-0.03-0.1l-0.04-0.1l-0.04-0.07l-0.03-0.04l-0.02-0.02
			c0.04,0.16,0.09,0.31,0.15,0.46L83.68,99.31z"/>
		<path class="st10" d="M65.6,30.96c-0.11-20.12-8.87-28.53-9.97-9.54c-0.13,4.64-0.31,8.86-0.74,13.05
			c-1.05,2.21-1.54,7.35-1.72,13.47l0.24,0.76l0.55,1.68l0.56,1.71l0.57,1.73l0.58,1.71l0.57,1.69l0.56,1.65l0.56,1.62l0.55,1.58
			l0.54,1.56l0.53,1.52l0.52,1.51l0.52,1.5l0.52,1.5l0.53,1.5l0.54,1.53l0.56,1.55l0.58,1.58l0.62,1.58L64.01,79l0.67,1.58
			l0.71,1.57l0.75,1.52l0.19,0.37C66.16,66.37,65.52,48.44,65.6,30.96z"/>
		<path class="st11" d="M78.92,103.91c-0.3-0.6-0.61-1.2-0.92-1.81l-0.18,0.85l-0.3,1.23l-0.32,1.09l-0.35,0.97l-0.38,0.82
			L78.92,103.91z"/>
		<path class="st11" d="M71.44,65.47c-0.77-4.12-0.35-8.54-0.38-12.72c-0.05-3.81-1.61-7.06-3.22-6.88
			c-3.72,0.02-3.82,20.58-4.71,27.35c-0.05,0.72-0.12,1.42-0.17,2.14c-0.29-0.45-0.57-0.9-0.85-1.35l0.08,0.21l0.58,1.58l0.62,1.58
			L64.01,79l0.67,1.58l0.71,1.57l0.75,1.53l0.77,1.46l0.8,1.36l0.82,1.25l0.84,1.16l0.85,1.05l0.88,0.98l0.88,0.9l0.89,0.83
			l0.91,0.78l0.91,0.76l0.92,0.72l0.1,0.08C74.05,85.24,72.07,75.62,71.44,65.47z"/>
		<path class="st11" d="M81.81,100.18l-0.09-0.23l-0.19-0.51l-0.18-0.5l-0.03-0.08l-0.06-0.03l-0.64-0.4l-0.72-0.47l-0.77-0.51
			l-0.25-0.17l0,0l0,0l0.14-0.82l0.31-2.04l0.23-1.57l0-0.02l-0.12-0.53l-0.13-0.53l-0.12-0.54l-0.12-0.55l-0.12-0.57l-0.12-0.57
			l-0.11-0.57l-0.11-0.57l-0.11-0.57l-0.1-0.56l-0.1-0.55l-0.09-0.55l-0.08-0.53l-0.08-0.54l-0.08-0.54l-0.07-0.53l-0.07-0.54
			l-0.07-0.55l-0.07-0.55l-0.06-0.56l-0.06-0.57l-0.06-0.56l-0.06-0.58l-0.06-0.58l-0.06-0.59l-0.05-0.58l-0.05-0.57l-0.05-0.56
			l-0.05-0.54l-0.04-0.51l-0.04-0.49l-0.03-0.45l-0.04-0.41l-0.03-0.39l-0.03-0.35l-0.03-0.33l-0.03-0.31l-0.03-0.3l-0.02-0.29
			l-0.03-0.28l-0.02-0.26l-0.02-0.25l-0.03-0.26l-0.02-0.24l-0.03-0.26l-0.02-0.25l-0.02-0.25l-0.03-0.27l-0.03-0.25l-0.03-0.26
			l-0.02-0.26l-0.03-0.25l0-0.02c-0.59-3.98-1.13-7.96-1.62-11.97c-1.14-8.89-1.99-18.33-4.04-26.58c-1.68-5.2-5.18-4.19-5.75,1.61
			c-0.4,16.17-0.03,32.75,0.14,49.18l0.18,0.4l0.75,1.53l0.77,1.45l0.8,1.36l0.82,1.25l0.84,1.16l0.85,1.05l0.88,0.98l0.88,0.9
			l0.89,0.83l0.9,0.78l0.92,0.76l0.92,0.72l0.92,0.69l0.9,0.67l0.87,0.62l0.57,0.39l0,0.01l0.01,0l-0.17,1.04l-0.3,1.71l-0.3,1.55
			l-0.3,1.38l-0.3,1.23l-0.31,1.09l-0.35,0.97l-0.37,0.82L81.81,100.18z"/>
		<path class="st11" d="M79.66,102.96c-0.08-0.81-0.16-1.61-0.25-2.42c0.24-0.75,0.4-1.64,0.46-2.6l-0.75-0.5l-0.25-0.17l-0.17,1.04
			l-0.3,1.71l-0.3,1.55l-0.24,1.14c0.09-0.04,0.18-0.09,0.27-0.14c0.09,0.67,0.17,1.35,0.26,2.02L79.66,102.96z"/>
		<path class="st11" d="M79.02,96.45l0.31-2.04l0.08-0.52l0.08-0.59c-0.12-0.78-0.24-1.58-0.37-2.37l-0.06-0.27l-0.12-0.56
			l-0.12-0.57l-0.12-0.58l-0.11-0.57l-0.11-0.56l-0.1-0.57l-0.09-0.54l-0.09-0.55l-0.08-0.53l-0.08-0.54l-0.08-0.54l-0.07-0.53
			l-0.07-0.54l-0.07-0.54l-0.02-0.18c-0.21-1.16-0.41-2.34-0.61-3.5c-2-11.39-4.16-22.67-6.12-34.09c-0.91-6.1-1.52-12.31-2.18-18.5
			c-0.25-1.98-0.3-4.08-0.66-5.99c-0.62-3.14-2.35-4.88-3.57-3.45c-3.01-1.76-5.26,3.97-6.37,9.37c-1.3,1.41-1.96,4.95-1.49,8.5
			c-0.06,7.36-0.59,14.89-0.37,22.51l0.1,0.29l0.33,0.96l0.56,1.62l0.55,1.58l0.54,1.56l0.53,1.52l0.52,1.51l0.52,1.5l0.52,1.49
			l0.53,1.5l0.54,1.53l0.56,1.55l0.58,1.58l0.62,1.58L64.01,79l0.67,1.58l0.71,1.57l0.75,1.53l0.77,1.46l0.8,1.36l0.82,1.25
			l0.84,1.16l0.1,0.12c1.67-2.94,1.03-8.88,0.88-13.46c1.14,5.91,2.24,11.86,3.34,17.79l0.09,0.07l0.92,0.76l0.92,0.72l0.92,0.69
			l0.9,0.67l0.87,0.62l0.58,0.4L79.02,96.45z"/>
		<path class="st12" d="M80.15,102.33l1.66-2.15l-0.09-0.23l-0.19-0.51l-0.18-0.49l-0.03-0.08l-0.06-0.04l-0.64-0.4l-0.72-0.47
			l-0.77-0.51l-0.25-0.17l0,0l0,0l0.14-0.82l0.31-2.04l0.23-1.59l0-0.01l-0.12-0.52l-0.13-0.54l-0.12-0.54l-0.12-0.54l-0.12-0.57
			l-0.05-0.24c-0.01,1.19-0.01,2.38,0.01,3.58c0.02,1.14,0,2.43-0.04,3.81l0.01,0.01l0,0.01l0.01,0l-0.02,0.1
			c-0.05,2.13-0.13,4.47-0.12,6.75L80.15,102.33z"/>
		<path class="st12" d="M78.52,87.97l-0.02-0.12l-0.1-0.56l-0.1-0.55l-0.09-0.55l-0.08-0.53l-0.08-0.54l-0.08-0.54l-0.07-0.53
			l-0.07-0.54l-0.07-0.55l-0.07-0.55l-0.06-0.55l-0.06-0.57l-0.06-0.56l-0.06-0.58l-0.06-0.58l-0.06-0.59l-0.05-0.58l-0.05-0.57
			l-0.05-0.56l-0.05-0.54l-0.04-0.51l-0.04-0.49l-0.03-0.45l-0.04-0.41l-0.03-0.39l-0.03-0.35l-0.03-0.33l-0.03-0.31l-0.03-0.3
			l-0.02-0.29l-0.03-0.28l-0.02-0.26l-0.02-0.25l-0.03-0.26l-0.02-0.24l-0.03-0.26l-0.02-0.25l-0.02-0.25l-0.03-0.27l-0.03-0.25
			l-0.03-0.26l-0.02-0.26l-0.03-0.25l-0.03-0.26l-0.03-0.26l-0.02-0.26l-0.03-0.27l-0.03-0.25l-0.03-0.25l-0.03-0.24l-0.03-0.24
			l-0.03-0.23l-0.03-0.23l-0.02-0.23l-0.03-0.23l-0.03-0.24l-0.02-0.23l-0.02-0.17c-0.39,2.19-0.75,4.41-1.1,6.64
			c-0.54,2.99-1.22,6.33-0.8,9.87c0.43,3.6,2.11,6.05,3.59,5.87C78.05,88.27,78.29,88.16,78.52,87.97z"/>
		<path class="st11" d="M81.81,100.18l-0.09-0.23l-0.19-0.52l-0.18-0.49l-0.03-0.09l-0.01,0l-0.05-0.03l-0.64-0.4l-0.71-0.47
			l-0.78-0.51l-0.08-0.06l-0.16-0.11l0,0l0,0l0.14-0.82l0.31-2.04l0.15-1c-0.88-2.19-1.77-4.36-2.66-6.53
			c0.43-4.3-2.17-8.21-3.53-5.43c-1.73,0.2-2.42,5.23-1.3,8.53c-0.06,0.58-0.07,1.19-0.03,1.79l0.03,0.03l0.9,0.84l0.9,0.78
			l0.92,0.76l0.92,0.72l0.92,0.69l0.9,0.66l0.87,0.62l0.58,0.4l0,0.01l0.01,0l-0.17,1.04l-0.3,1.71l-0.3,1.55l-0.3,1.38l-0.3,1.23
			l-0.31,1.09l-0.33,0.9c0.04,0.08,0.07,0.15,0.11,0.23L81.81,100.18z"/>
		<path class="st11" d="M78.52,99.78c0.54-0.54,0.91-1.21,1.15-1.98l-0.54-0.36l-0.25-0.17l0,0l0,0l0.14-0.82l0.31-2.04l0.23-1.57
			l0-0.02l-0.12-0.53l-0.13-0.53l-0.12-0.54l-0.12-0.55l-0.12-0.57l-0.12-0.57l-0.11-0.57l-0.11-0.57l-0.11-0.57l-0.1-0.56
			l-0.1-0.55l-0.09-0.55l-0.08-0.53l-0.08-0.54l-0.08-0.54l-0.07-0.53l-0.07-0.54l-0.07-0.55l-0.07-0.55l-0.06-0.55l-0.06-0.57
			l-0.06-0.56l-0.06-0.58l-0.06-0.58l-0.06-0.59l-0.01-0.13c-0.6-3.56-1.13-7.04-1.64-10.81c-2.4-18.2-4.66-36.65-9.19-53.3
			c-1.43-5.56-3.6-17.97-6.78-11.96c-5.44-8.72-6.69,21.91-7.43,42.49l0.07,0.22l0.52,1.61l0.53,1.65l0.55,1.67l0.56,1.71l0.57,1.73
			l0.58,1.71l0.57,1.69l0.56,1.65l0.45,1.29c0.17-1.12,0.34-2.22,0.57-3.23c1.43-8.13,2.92-16.14,4.45-24.14
			c0.86,5.48,1.75,10.92,2.76,16.29c0.77,4.49,2.12,11.34,4.58,9.65c1.17,9.79,2.33,19.61,3.95,29.19c0.27,1.82,0.59,4.07,1.02,6.15
			l0.14,0.11l0.92,0.72l0.92,0.69l0.9,0.67l0.87,0.62l0.57,0.39l0,0.01l0.01,0l-0.17,1.04l-0.26,1.52
			C78.47,99.81,78.5,99.8,78.52,99.78z M60.02,21.64c-0.19,0.9-0.37,1.8-0.56,2.7c-0.53,2.61-1.07,5.23-1.6,7.86
			c0.26-4.97,0.61-9.9,1.14-14.7C59.34,18.87,59.69,20.25,60.02,21.64z"/>
		<path class="st11" d="M59.53,23.98c-0.02,0.11-0.05,0.22-0.07,0.35C59.48,24.22,59.51,24.1,59.53,23.98z"/>
		<path class="st11" d="M78.15,104.91l0.3-0.4c0-0.15-0.03-0.31-0.08-0.48c-0.15-0.52-0.32-1-0.45-1.54l-0.1,0.46l-0.25,1.04
			c0.08,0.28,0.16,0.57,0.24,0.85c0.04,0.15,0.09,0.25,0.14,0.33L78.15,104.91z"/>
		<path class="st11" d="M81.28,100.86l0.38-0.49c-0.91-1.25-1.84-2.32-2.81-2.9l-0.14,0.84l-0.3,1.71l-0.3,1.55l-0.16,0.75
			c0.41,0.36,0.8,0.81,1.18,1.3L81.28,100.86z"/>
		<path class="st10" d="M82,92.12c-4.3-2.65-4.27-12.25-4.7-19.3c-1.06-12.87-1.57-25.94-3.17-38.63c-0.19-1.44-0.37-2.89-0.54-4.35
			l0.18-0.24l0.7-1l0.66-1.02l0.62-1.03l0.58-1.04l0.55-1.03l0.52-1.02l0.5-1l0.48-0.99l0.46-0.97l0.45-0.96l0.46-0.96l0.46-0.97
			l0.47-0.98l0.47-1l0.48-1.02l0.23-0.5c0.72,0.62,1.47,1.09,2.31,1.48c0.56,0.26,1.14,0.44,1.75,0.45c0.02,0,0.04,0,0.06,0
			c0.2,0,0.39-0.02,0.59-0.05c0.35,3.31,0.62,6.41,0.88,8.62c0.98,11,1.9,22.02,2.61,33.1c0.54,8.95,1.13,17.9,1.47,26.9
			c0.09,2.27-0.08,4.42-0.69,6.41c-0.95,3.27-2.79,4.94-4.64,4.94C84.62,95.96,83.01,94.69,82,92.12z"/>
		<path class="st11" d="M57.64,165.05c-5.99-3.21-11.8-6.87-17.63-10.52c-1.81-1.36-0.95-4.88,1.04-5.01
			c0.46-0.29,1.47-2.27,2.69-4.77c0.09-0.24,0.2-0.46,0.33-0.67c0.23-0.48,0.47-0.98,0.71-1.48c0,0,0-0.01,0.01-0.02
			c1.05-2.55,1.94-5.16,2.86-7.8c0.09-0.28,0.19-0.56,0.28-0.84c-6.52-1.52-13.34-1.67-19.33-5.79c-0.79-0.53-1.61-1.03-2.43-1.54
			c-3.37,1.42-6.73,2.94-9.94,4.91c4.17,3.28,7.86,7.4,11.56,11.48c2.94-3.48,6.45-6.01,9.98-8.33c1.55-1.25,3.6-2.22,5.19-0.51
			c1.66,1.6,1.73,4.81,0.42,6.79c-1.2,1.8-3.05,2.39-4.61,3.52c-2.13,1.44-4.18,3.08-6.02,5.09c-1,0.92-1.24,2.56-2.19,3.52
			c-0.59,0.6-1.38,0.98-2.14,0.95c-1.51,0.06-2.6-1.27-3.38-2.8c-2.92-4.01-6.1-7.71-9.49-11.03c-1.55-1.38-3.04-2.93-4.76-3.93
			c-1.67-0.37-2.89-2.8-2.14-4.89h0c0.41-1.16,1.26-2.17,2.27-2.27c0.32-0.09,0.7-0.04,1.07,0.01c0.36,0.05,0.71,0.09,1,0.02
			c3.56-0.96,7.06-2.3,10.59-3.41c0.27-0.09,0.53-0.18,0.8-0.27c-1.17-0.8-2.3-1.69-3.29-2.8c-1.11-1.5-1.55-3.54-1.78-5.56
			c-0.6-0.36-1.2-0.71-1.8-0.99c-0.01,4.43-4.21,7.35-6.65,3.82c-2.55,0.91-5.07-2.91-3.89-6.07c0.88-2.38,2-4.82,2.2-7.48
			c0.38-8.28,2.03-16.3,4.39-23.98c1.33-3.64,2.23-9.65,5.64-10.7c1.27-0.33,2.47,0.33,3.25,1.47c1.11,0.25,2.15,1.16,2.66,2.67
			c7.43,1.91,9.03,1.29,14.93-4.67c0.07-0.07,0.14-0.13,0.21-0.2l0.01-0.01l0.09-0.07l0.09-0.07l0.08-0.07l0.08-0.07l0.08-0.06
			l0.08-0.06l0.07-0.06l0.07-0.06l0.07-0.06l0.07-0.06l0.07-0.06l0.06-0.06l0.06-0.06l0.07-0.06l0.06-0.06l0.06-0.06l0.06-0.06
			l0.06-0.07l0.06-0.06l0.06-0.07l0.06-0.07l0.06-0.07l0.06-0.07l0.06-0.07L42,69.36l0.06-0.08l0.06-0.08l0.06-0.08l0.06-0.08
			l0.06-0.09l0.06-0.09l0.06-0.09l0.06-0.09l0.01-0.02c3.96-4.31,7.31-9.49,10.67-14.59c2.61-3.74,5.34-7.34,8.02-10.99l2.98,1.75
			l-0.49-0.48l-0.47-0.57l-0.44-0.65l-0.44-0.73l-0.27-0.51c0.16-0.22,0.32-0.43,0.47-0.65c0.31-0.41,0.63-0.82,0.95-1.23
			c0.14-0.69,0.28-1.38,0.42-2.08c0.04-0.21,0.07-0.41,0.1-0.61l0.11-0.06l0.96-0.51l0.96-0.54l0.94-0.55l0.93-0.58l0.91-0.62
			l0.9-0.67l0.86-0.72l0.84-0.78l0.81-0.84l0.78-0.9l0.74-0.96l0.7-1l0.66-1.02l0.62-1.03l0.58-1.04l0.55-1.03l0.52-1.02l0.07-0.14
			c2.46-2.61,5-5.09,7.63-7.39c0.27,0.07,0.54,0.11,0.81,0.11c0.02,0,0.04,0,0.06,0c1.54,0,3.22-1.04,3.99-2.84
			c0.23-0.54,0.44-1.08,0.6-1.64c1.78-1.3,3.6-2.5,5.47-3.6c5.01-3.14,10.69-3.52,16.16-4c4.53-0.18,9.1-0.55,13.62,0.1
			c5.67,0.6,10.9,3.45,15.81,7.08c5.97,3.87,11.18,9.27,16.29,14.79c4.97,5.58,10.08,11.14,14.15,17.87
			c4.96,8.87,8.58,18.93,14.15,27.24c1.73-2.48,3.38-5.05,4.87-7.77c1.49-2.84,2.42-6.61,4.98-8.14c5.94-2.31,6.51,8.64,6.11,13.89
			c-0.16,5.52-1.95,10.26-4.01,14.85c0.37,0.13,0.74,0.27,1.09,0.42c3.53,1.54,12.01,3.06,9.76,10.09c-1.49,2.98-1.8,6.8-2.7,10.15
			c-0.9,4.08-1.75,8.2-2.41,12.36c-0.37,2.41-0.69,4.84-0.58,7.31c0.12,1.02,0.03,2.06-0.41,2.94c-0.73,1.69-2.77,2.15-3.8,0.64
			c-5.08-4.19-11.84-5.31-15.65-11.85c-0.63,1.25-1.29,2.49-1.98,3.69c1.06,2.44,2.09,4.91,3.13,7.38c1.6,4.38,4.86,9.57,3.1,14.56
			c-0.35,1.01-1.55,1.99-2.25,2.1c-3.95,2.05-7.33,5.73-10.6,9.22c-1.37,1.61-2.77,3.23-3.87,5.16c-0.65,1.64-2.15,2.66-3.51,1.87
			c-0.81-0.44-1.43-1.47-1.57-2.6c-3.42-6.18-7.63-11.64-11.51-17.3c-2.82,1.53-5.62,3.08-8.58,4.13c-2.18,0.76-4.39,1.38-6.56,2.19
			c-6.65,2.8-14.1,2.69-20.9,3.14c-5.56,0.68-11.16,0.67-16.72,0.02l0.5,0.04c-4.58-0.4-9.15-1.32-13.55-3.06
			c-4.97-1.99-9.57-5.41-14.63-7.03c-0.53-0.1-1.06-0.2-1.59-0.3c-0.38,0.52-0.72,1.1-1.04,1.7c-0.01,0.03-0.03,0.06-0.04,0.09
			c0.1,0.63,0.09,1.32-0.06,2.06c-0.41,2.12-1.25,4.03-2.1,5.89c-0.8,1.81-1.58,3.64-2.35,5.47c0.43,1.74-0.54,3.53-1.84,4.46
			c-0.02,0.06-0.05,0.11-0.07,0.17c-1.14,3.1-2.57,6.9-5.09,6.9C59.16,165.88,58.45,165.62,57.64,165.05z M18.39,107.78
			c0.09,0.05,0.19,0.09,0.28,0.14c-0.03-0.71-0.06-1.42-0.09-2.13C18.51,106.44,18.45,107.11,18.39,107.78z M79.03,58.16
			c0.34-0.1,0.68-0.19,1.02-0.29c-0.61-2.09-1.27-4.16-1.96-6.22C78.37,53.84,78.73,55.99,79.03,58.16z"/>
		<path class="st11" d="M29.96,144.35c-1.32-1.36,0.11-3.8,0.79-5.16c-0.29-0.01-0.59-0.08-0.87-0.2c-1.34,1.53-1.87,2.65-3.28,3.56
			c-2.26,1.43-5.22-0.58-5.56-3.82c-3.61-0.04-5.13-6.35-2.13-9.01c1.45-1.37,3.29-1.5,5.02-1.69c1.37-0.14,2.84-0.3,4.09,0.66
			c0.55-0.66,1.13-1.28,1.7-1.91c0.99-1.07,2.47-1.21,3.61-0.52c1.28-2.06,3.54-3.21,5.28-1.35c0.36-0.29,0.72-0.57,1.09-0.85
			c0.37-0.28,0.79-0.45,1.21-0.5c0.42-1.25,1.44-2.25,2.2-3.22c0.29-0.36,0.68-0.89,1.13-0.68c3.15-4.48,6.58-1.43,4.82,3.98
			c-1.84,4.34-4.57,7.9-7.11,11.54c-1.87,2.43-4.63,7.9-7.44,4.24c-0.98,1.17-2.53,5.07-4.05,5.07
			C30.28,144.49,30.12,144.45,29.96,144.35z"/>
		<path class="st11" d="M56.79,62.12c-4.79-1.33-2.1-8.5-1.17-12.48c0.69-2.83,1.37-5.66,2.01-8.51l0.06-0.12l6.5,3.82l-0.49-0.48
			l-0.47-0.57l-0.44-0.65l-0.44-0.73l-0.45-0.83l-0.46-0.93l-0.47-1.03l-0.28-0.63l0.61-0.29l0.92-0.45l0.95-0.48l0.96-0.5
			l0.96-0.51l0.96-0.54l0.94-0.55l0.93-0.58l0.91-0.62l0.9-0.67l0.86-0.72l0.84-0.78l0.81-0.84l0.78-0.9l0.74-0.96l0.7-1l0.17-0.26
			c0.2,1.7,0.4,3.39,0.62,5.08c0.56,4.94,1.08,9.89,1.87,14.77c0.48,3.53-2.57,6.55-5.08,5.06c-1.63-0.9-2.38-3.13-3.06-5.11
			c-1-2.9-1.95-5.83-2.87-8.77c-0.94,2.96-1.54,6.02-1.99,9.17c-0.49,1.77-0.69,7.25-2.66,6.87c-0.76,2.74-1.5,6.78-4.14,6.78
			C57.16,62.17,56.98,62.15,56.79,62.12z"/>
		<path class="st11" d="M58.25,39.89l0.14-0.3l0.13-0.3l0.13-0.3l0.12-0.29l0.12-0.29L59,38.12l0.1-0.29l0.1-0.29l0.1-0.29l0.1-0.31
			l0.1-0.31l0.09-0.31l0.39,0.96l0.52,1.23l0.22,0.5l-0.26,0.13l-0.82,0.38l-0.76,0.35l-0.68,0.29l-0.06,0.02L58.25,39.89z"/>
		<path class="st11" d="M59.88,60.42c-0.27-0.46-0.34-1.08-0.46-1.63c-0.08-0.37,0.36-0.53,0.45-0.16c0.06,0.28,0.12,0.56,0.18,0.83
			c0.06-5.64,0.02-11.28,0.27-16.91l1.54,0.9c-0.35,3.77-0.6,7.56-0.8,11.35c-0.14,0.89-0.08,5.66-1,5.66
			C60,60.47,59.94,60.45,59.88,60.42z"/>
		<path class="st11" d="M70.35,50.41c-0.51-1.33-0.27-3.31-0.2-4.64c0.21-4.17,0.36-8.34,0.5-12.51c-0.05-0.04-0.09-0.07-0.14-0.11
			l0.1-0.08l0.84-0.78l0.81-0.84l0.78-0.9l0.74-0.96l0.7-1l0.66-1.02l0.62-1.03l0.58-1.04l0.55-1.03l0.52-1.02l0.5-1l0.48-0.99
			l0.46-0.97l0.45-0.96l0.46-0.96l0.46-0.97l0.47-0.99l0.47-1l0.48-1.02l0.23-0.5c0.24,0.21,0.49,0.4,0.74,0.58
			c0.02,0.71,0.02,1.43-0.01,2.15c-0.05,11.55-2.51,22.8-5.49,33.58c-0.56,1.9-1.99,2.87-3.4,2.87
			C72.3,53.28,70.9,52.33,70.35,50.41z"/>
		<path class="st11" d="M62.29,42.25l-0.37-0.68l-0.46-0.93l-0.47-1.03l-0.28-0.63l0.61-0.29l0.92-0.45l0.95-0.48l0.96-0.5
			l0.96-0.51l0.96-0.54l0.09-0.05c-0.14,0.72-0.28,1.44-0.42,2.16c-0.12,2.14-1.53,3.96-3.16,3.96
			C62.49,42.27,62.39,42.27,62.29,42.25z"/>
		<path class="st11" d="M59.55,37.74c0.05-0.39,0.1-0.77,0.15-1.16l0.27,0.67l0.52,1.23l0.22,0.5l-0.26,0.13l-0.79,0.36
			C59.53,38.93,59.48,38.34,59.55,37.74z"/>
		<path class="st13" d="M20.64,115.77c-1.58-1.6-1.37-4.45-1.57-6.78c-0.23,0.21-0.49,0.36-0.76,0.46c-1.1,1.56-3.27,1.22-4-0.69
			c-0.49,2.03-1.26,4.57-3.28,3.87c-1.16-0.42-1.91-2.06-1.57-3.59c0.53-2.17,1.21-4.27,1.78-6.42c1.41-6.07,2.91-12.14,4.06-18.3
			c0.75-3.11-0.36-8.26,2.67-9.47c1.59-0.53,3.05,1.08,3.41,3.04c0.9,3.93,1.18,8.04,1.61,12.09c0.73,6.95,1.75,13.86,2.15,20.86
			c0.07,1.02,0.11,2-0.07,3.01c-0.3,1.66-1.53,2.67-2.76,2.67C21.71,116.52,21.12,116.29,20.64,115.77z"/>
		<path class="st14" d="M106.06,61.49c0-0.16,0.1-0.3,0.23-0.3c0.13,0,0.23,0.14,0.23,0.3s-0.1,0.3-0.23,0.3
			C106.17,61.79,106.06,61.66,106.06,61.49z"/>
		<path class="st14" d="M178.95,100.48c-1.8-0.19-2.82-2.31-3.91-3.91c-1.96,3.5-5.56,2.33-7.19-1.01c-1.54-2.45-2.77-5.19-4.34-7.6
			c-2.27-3.08-4.85-5.77-7.54-8.21c-3.69-2.89-7.52-5.46-11.3-8.14c-3-1.38-5.99-2.77-8.99-4.17c-5.94-2.88-12.23-2.63-18.5-2.39
			c-2.42,0.1-4.85,0.19-7.24,0.11c-4.73,0.64-9.2,3.59-13.96,3.96c0,0,0-0.01,0-0.01c-1.32,0.08-2.08-2.24-1.09-3.42
			c2.26-2.38,5.29-3.18,7.94-4.67c-0.15-5.47,3.78-5.55,6.96-5.42c3.17-0.23,6.33-0.56,9.5-0.77c9.55-0.86,18.96,3.05,27.69,7.36
			c6.39,2.71,13.11,4.69,18.71,9.76c6.5,5.55,11.52,13.39,16.65,20.87c1.93,2.95-0.01,7.72-2.83,7.72
			C179.34,100.54,179.15,100.52,178.95,100.48z"/>
		<path class="st14" d="M181.48,69.28c-5.89-6.25-12.42-10.57-18.93-15.42c-7.24-5.71-14.44-11.62-22.65-14.67
			c-5.89-2.56-11.73-5.37-17.78-7.3c-4.91-0.53-9.52-1.29-14.4-0.56c1.22,0.88,2.55,1.51,3.95,1.66c0.45,0.08,0.78,0.64,0.71,1.22
			c-0.51,2.59-5.18-0.98-6.23-1.73c-0.84-0.39-1.22-1.44-0.82-2.5c1.01-2.19,3.45-1.89,5.14-2.45c-1.59-9.38,8.42-6.12,12.43-5.14
			c4.68,0.52,9.36,1.18,13.96,2.41c6.73,1.73,13.36,4.32,19.39,8.62c3.08,2.19,6.05,4.64,9.18,6.71c5.49,3.66,11.56,5.25,17.47,7.28
			c3.84,1.38,3.17,8.93-0.88,8.98c1.21,1.83,2.31,3.79,3.59,5.52c1.44,1.36,1.95,4,1.02,6.06c-0.62,1.46-1.83,2.24-3.04,2.24
			C182.86,70.21,182.11,69.91,181.48,69.28z"/>
		<path class="st14" d="M181.3,73.82c-5.2-9.19-9.89-19.12-16.09-27.29c-6.06-5.96-12.63-11.26-19.86-14.42
			c-5.7-1.41-11.53-0.68-17.28-0.38c-7.37,0.79-15.05,0.18-22.16,3.02c1.12,3.45-0.96,5.9-3.33,6.73c-2,1.38-3.47,3.72-5.16,5.62
			c-1.11,1.31-2.16,2.72-3.31,3.96c-3.34,3.37-7.76-2.31-5.19-6.68c-1.79-1.01-2.64-4.17-1.67-6.4c-0.32-3.24,2.16-5.52,4.46-5.48
			c1.93-1.26,3.64-3.04,5.65-4.17c0.44-0.33,0.99-0.43,1.29-1c2.02-2.92,4.38-5.42,6.92-7.55c3.77-3.31,8.31-4.51,12.8-4.52
			c6.04,0.14,11.96,1.98,17.92,3.08c4.01,0.87,7.79,2.8,11.55,4.72c2.45,0.77,4.83,1.83,7.21,2.87c4.15,1.67,8.89,3.29,12.66,5.96
			c1.58,1.04,3.15,2.07,4.75,3.08c5.52,2.75,8.66,9.93,11.12,16.42c2.11,4.85,3.31,10.2,3.83,15.7c0.27,2.31,0.55,4.99-0.9,6.76
			c-0.71,0.93-1.65,1.38-2.59,1.38C182.96,75.21,182.01,74.74,181.3,73.82z"/>
		<path class="st14" d="M174.08,105.52c-0.88-0.49-1.47-1.3-1.92-2.14c-1.42-2.7-3.04-5.22-4.94-7.38
			c-5.83-6.02-11.85-11.92-18.51-16.28c-8.44-4.95-15.95-11.27-25.21-12.93c-10.36-2.33-14.91-4.57-21.57,8.09
			c-0.75,1.49-1.5,2.98-2.18,4.53c-2.55,5.31-8.66,0.7-6.3-4.84c-1.53,2.11-2.42,4.78-3.65,7.16c-0.41,1.02-1.36,1.68-2.25,1.52
			c-1.38-0.24-2.26-2.21-1.7-3.88c2.68-8.08,4.93-17.3,10.3-23.09c7.14-6.54,16.45-6.47,24.85-6.29c7.04,0.38,14.13,0.35,21.15,1.23
			c5.6,0.87,10.46,4.84,15.02,8.9c4.39,3.51,8.65,7.39,11.63,12.95c3.31,5.84,7,11.6,8.64,18.66c0.64,3.3,1.74,6.6,1.73,10.02
			c-0.2,2.45-1.94,4.12-3.7,4.12C174.99,105.88,174.52,105.77,174.08,105.52z M150.02,69.94c5.11,3.02,9.84,6.92,14.36,11.24
			c-2.82-5.64-6.76-9.8-11.16-13.21c-7.61-7.26-11.46-8.19-20.74-8.31C138.65,62.07,144.13,66.64,150.02,69.94z M97.3,65.6
			c1.06-1.16,2.14-2.28,3.26-3.36c0.1-0.13,0.2-0.25,0.3-0.37C99.47,62.74,98.24,64.02,97.3,65.6z"/>
		<path class="st14" d="M124.72,127.7c-11.98-2.08-23.51-7-35.1-11.15c-4.19-2.49-1.95-10.5,2.51-9.05
			c0.78-0.87,1.83-1.33,2.88-1.12c4.36,0.89,8.76,1.4,13.13,2.28c12,2.14,24,5.82,36.17,5.05c4.07-0.4,8.14-1.14,12.03-2.85
			c3.69-1.19,9.65-8.41,11.78-0.91c1.57-0.82,3.32-1.71,4.99-0.79c1.57,0.86,2.59,3.06,2.36,5.27c-0.6,3.71-3.53,5.68-5.69,7.81
			c-4.57,4.04-10.42,3.31-15.66,4.47c-4.87,1.94-9.87,2.69-14.89,2.69C134.38,129.41,129.51,128.71,124.72,127.7z"/>
		<path class="st15" d="M26.9,150.21c-3.04-2.37-6.51-3.77-9.29-6.67c-2.82-3.31-5.26-7.16-8.01-10.54c0,0,0,0,0,0
			c-1.46-1.36-0.45-4.63,1.36-4.23c4.27,1.63,7.22,6.72,11.08,9.41c1.47,0.93,3.02,1.65,4.56,2.38c1.95,1.07,4.74,1.5,5.34,4.6
			c0.69,2.95-1.27,5.67-3.39,5.67C28.01,150.83,27.43,150.64,26.9,150.21z"/>
		<path class="st15" d="M10.55,157.08c-2.48-0.35-4.68-3.82-3.54-7.01c0.72-2.43,2.63-3.52,4.13-4.99
			c-2.86-0.62-12.49-0.94-9.92-7.24c0.62-1.07,1.72-1.1,2.51-1.5c1.27-0.65,2.5-1.41,3.72-2.2c-0.85-4.89,4.26-7.48,6.24-3.18
			c0.91-0.11,2,0.6,1.79,1.96c4.13,2.11,17.22,8.85,15.74,16.08c-0.51,2.67-2.61,3.64-4.44,4.26c-4.95,1.56-9.99,3.85-15.12,3.85
			C11.28,157.12,10.91,157.1,10.55,157.08z M8.27,136.64c-0.3,0.27-0.59,0.54-0.89,0.82c0.46,0.02,0.91,0.04,1.37,0.06
			c-0.05-0.11-0.11-0.22-0.16-0.33c-0.1-0.2-0.19-0.39-0.27-0.59C8.3,136.62,8.28,136.63,8.27,136.64z"/>
		<path class="st15" d="M43.08,180.43c-1.83-0.9-2.76-3.95-1.96-6.26c0.61-1.76,1.51-3.32,2.22-5.02c-3.1,1.95-7.71,7.81-10.44,2.2
			c-1.21,1.19-3.44,1.56-3.96-0.78c-0.35-1.62,0.78-2.73,1.42-3.93c1.46-2.3,2.56-4.93,3.61-7.58c0.96-2.37,1.95-4.75,2.75-7.23
			c0.19-2.66,2.52-4.47,4.4-3.35c4.04,3.55,8.68,5.53,13.17,7.95c1.99,1.46,4.77,1.49,6.08,4.13c1.09,2.28,0.46,5.32-1.18,6.83
			c-3.19,3.52-6.6,6.69-9.88,10.07c-1.4,1.45-2.99,3.39-4.79,3.39C44.05,180.86,43.57,180.73,43.08,180.43z"/>
		<path class="st15" d="M179.68,171.16c-2.1-1.42-3.51-4.09-5.24-6.13c-1.73-2.33-3.53-4.61-4.93-7.3
			c-1.41-2.77,0.57-6.73,3.06-6.34c0.91-0.86,1.81-1.73,2.66-2.69c0.29-1.51,1.27-2.74,2.41-3.16c0.71-1.09,1.37-2.23,2.02-3.38
			c0.17-0.34,0.33-0.68,0.49-1.03c-0.7-2.69,1.33-5.69,3.49-4.82c0.77,0.28,1.37,0.95,1.72,1.8c1.16,1.65,2.43,3.15,3.7,4.66
			c3.05,3.7,6.97,6.35,9.58,10.59c1.64,4.08-1.34,7.85-4.54,6.95c-3.11-0.75-6.14-2.06-9.13-3.37c0.45,1.1,0.92,2.13,1.51,3.11
			c1.21,2.48,0.17,6.13-2.02,6.92c0.11,2.5-1.66,4.59-3.49,4.59C180.54,171.54,180.1,171.42,179.68,171.16z M182.58,146.2
			c0.21,0.05,0.42,0.1,0.63,0.16c-0.11-0.14-0.22-0.29-0.33-0.43c-0.02-0.02-0.04-0.05-0.05-0.07
			C182.75,145.98,182.67,146.09,182.58,146.2z"/>
		<path class="st15" d="M208.49,136.31c-3.91-1.85-6.93-5.95-10.08-9.35c-0.45-0.07-0.87-0.36-1.16-0.85
			c-0.15-0.25-0.25-0.54-0.31-0.84c-1.13-1.52-2.82-2.59-3.31-4.74c-0.92-4.17,3.09-7.26,5.53-4.37c1.27-4.65,2.78-9.08,3.65-13.83
			c0.46-2.12,0.79-4.29,1.39-6.36c0.13-0.31,0.31-0.7,0.55-0.87c0.43-1.78,0.79-3.59,1.17-5.39c0.49-2.48,3.04-3.54,4.55-1.92
			c1.5,1.46,1.21,3.98,0.74,6.03c0.42,0.33,0.93,1.67,1.04,2.09c2.41,6.77,2.74,14.1,4.46,21.01c1.46,1.81,3.14,3.88,2.73,6.71
			c-0.59,4.86-5.23,5.26-7.25,1.62c0.34,2.04,1.45,3.72,1.31,5.93c0.22,2.97-1.77,5.36-3.92,5.36
			C209.22,136.52,208.86,136.45,208.49,136.31z M203.08,119.05c-0.06,0.19-0.13,0.37-0.2,0.56c0.36,0.36,0.72,0.73,1.08,1.11
			c-0.15-0.99-0.29-1.97-0.44-2.96C203.38,118.2,203.23,118.63,203.08,119.05z"/>
		<path class="st15" d="M61.06,97.96c-4.19-2.47-1.12-11.76-0.64-16.25c0.58-3.94,0.52-8.03,0.96-12.02
			c0.14-3.07,1.46-6.91,4.27-6.36c2.55,0.41,3.04,3.75,3.09,6.54c2.09,3.33,1,8.02,0.63,11.88c-0.5,3.03-0.49,6.72-2.41,8.92
			c-0.04,0.32-0.09,0.64-0.14,0.95c-0.09,0.55-0.31,1.06-0.59,1.49c-0.05,2.72-1.82,5.22-3.84,5.22
			C61.95,98.34,61.5,98.22,61.06,97.96z"/>
		<path class="st12" d="M43.8,66.11l0.06-0.13l0.06-0.15l0.06-0.16l0.07-0.16l0.07-0.17l0.08-0.17l0.07-0.18l0.08-0.19l0.08-0.19
			l0.08-0.2l0.09-0.2l0.09-0.2l0.09-0.22l0.09-0.22l0.1-0.22l0.1-0.22l0.1-0.23l0.1-0.24l0.1-0.24l0.11-0.25l0.11-0.26l0.12-0.27
			l0.12-0.28l0.13-0.29l0.13-0.31l0.14-0.33l0.15-0.34l0.15-0.36l0.16-0.37l0.17-0.38l0.17-0.4l0.18-0.41l0.19-0.43l0.19-0.43
			l0.2-0.43L48,56.44l0.16-0.34c-0.94,5.8-2.3,10.01-4.29,10.01C43.84,66.11,43.82,66.11,43.8,66.11z"/>
		<path class="st12" d="M54.53,46.3l0.09-0.13l0.17-0.26l0.17-0.26l0.17-0.27l0.18-0.28l0.18-0.29l0.19-0.29l0.19-0.3l0.19-0.31
			l0.19-0.32l0.19-0.33l0.2-0.34l0.2-0.34l0.2-0.35l0.19-0.35l0.19-0.35l0.18-0.34l0.1-0.18l3.74,2.2c0.46,3.56,0.28,6.96-2.81,7.87
			c-0.18,0.03-0.36,0.04-0.52,0.04C55.91,51.11,55.02,48.85,54.53,46.3z"/>
		<path class="st12" d="M58.25,39.89l0.14-0.3l0.13-0.3l0.13-0.3l0.12-0.29l0.12-0.29l0.11-0.29l0.1-0.29l0.1-0.29l0.1-0.29
			l0.1-0.31l0.1-0.31l0.1-0.32l0.39,0.96l0.52,1.23l0.22,0.5l-0.26,0.13l-0.82,0.38l-0.76,0.35l-0.68,0.29l-0.06,0.03L58.25,39.89z"
			/>
		<path class="st12" d="M60.72,38.98l0.01-0.01c0,0.02,0.01,0.04,0.01,0.06L60.72,38.98z"/>
		<path class="st12" d="M43.22,68.03c-0.06-0.09-0.12-0.19-0.17-0.29l0.03-0.06l0.06-0.11l0.06-0.11l0.05-0.12l0.06-0.12l0.06-0.13
			l0.06-0.13l0.06-0.13l0.06-0.13l0.06-0.14l0.06-0.14l0.06-0.14l0.06-0.15l0.06-0.15l0.06-0.15l0.06-0.16l0.07-0.16l0.07-0.17
			l0.08-0.17l0.07-0.18l0.08-0.19l0.08-0.19l0.08-0.2l0.09-0.2l0.09-0.2l0.09-0.22l0.09-0.22l0.1-0.22l0.1-0.22l0.1-0.23l0.1-0.24
			l0.1-0.24l0.11-0.25l0.11-0.26l0.12-0.27l0.12-0.28l0.13-0.29l0.13-0.31l0.14-0.33l0.15-0.34l0.15-0.36l0.16-0.37l0.17-0.38
			l0.17-0.4l0.18-0.41l0.19-0.43l0.19-0.43l0.2-0.43l0.2-0.43l0.2-0.43l0.21-0.42l0.2-0.4l0.21-0.39l0.21-0.37l0.21-0.36l0.2-0.35
			l0.21-0.34l0.21-0.34l0.21-0.33l0.21-0.32l0.21-0.32l0.21-0.31l0.21-0.31l0.22-0.31l0.22-0.31l0.21-0.3l0.21-0.3l0.22-0.3
			l0.21-0.3l0.21-0.29l0.21-0.29l0.2-0.28l0.2-0.28l0.2-0.27l0.19-0.27l0.19-0.27l0.18-0.25l0.18-0.25l0.17-0.25l0.17-0.25
			l0.17-0.25l0.17-0.25l0.17-0.26l0.17-0.26l0.17-0.27l0.18-0.28l0.18-0.29l0.19-0.29l0.19-0.3l0.19-0.31l0.19-0.32l0.19-0.33
			l0.2-0.34l0.2-0.34l0.2-0.35l0.19-0.35l0.13-0.24c-0.37,2.67-0.83,5.32-1.29,7.95c-0.11,1.2-0.55,2.32-1.22,3.09
			c0.03,3.24-0.66,7.2-3.66,7.45c-0.45,2.62-0.61,5.44-1.79,7.73c-0.73,1.4-1.95,2.12-3.17,2.12
			C45.09,69.97,43.95,69.34,43.22,68.03z"/>
		<path class="st12" d="M20.65,131.2C20.65,131.2,20.65,131.2,20.65,131.2c0,0,0.01,0.01,0.02,0.02c-0.14-0.14-0.33-0.33-0.19-0.58
			c0.15-0.25,0.36-0.03,0.5,0.13c0.16,0.21,0,0.51-0.17,0.51C20.75,131.29,20.7,131.27,20.65,131.2z"/>
		<path class="st12" d="M36.21,144.64c-0.41-0.15-0.79-0.43-0.81-0.45c-0.19-0.13-0.38-0.26-0.56-0.39c-1.38,0.11-2.58-1.9-3.8-2.66
			c-2.62-1.98-5.46-3.41-8.26-4.89c-0.73-0.4-8.04-3.72-5.72-4.82c0.32-0.06,0.95-0.22,0.78,0.46c0.55,0.23,1.1,0.46,1.66,0.69
			c-1.91-3.06,0.32-6.93,3.15-6.25c1.55-1.49,3.44,0,5.02,0.65c1.81,1.05,3.98,1.29,5.59,2.8c2.86-3.3,5.15,0.36,6.63,3.49
			c1.82,1.56,1.56,4.59,0.59,6.74c0.26,2.54-1.47,4.82-3.35,4.82C36.83,144.82,36.52,144.76,36.21,144.64z"/>
		<path class="st12" d="M185.96,123.18c-4.59-3.43-0.07-10.01,1.61-14.09c1.56-3.06,2.94-6.38,4.97-8.93
			c0.97-1.99,1.77-4.38,3.38-5.63c1.01-2.58,1.76-4.74,2.81-7.17c0.63-1.48,2.41-1.55,3.08-0.12c0.08-0.11,0.15-0.22,0.22-0.33
			c0.2-0.29,0.54,0.05,0.44,0.39c-0.36,0.89-0.38,1.86-0.66,2.78c0.79,0.25,1.5,1.02,1.91,1.93c0.43,0.95,0.51,1.98,0.36,3.03
			c1.99,3.09-0.07,7.32-0.84,10.57c-0.76,2.23-1.05,5.09-2.82,6.37c-0.67,1.89-1.25,3.85-2,5.69c-1.29,2.96-4.45,2.44-5.67-0.28
			c-1.51,2.33-2.99,6.3-5.3,6.31C186.98,123.7,186.49,123.54,185.96,123.18z"/>
		<path class="st12" d="M32.09,151.78c-2.63-1.77-3.52-5.9-5.4-8.67c-3.02-4.26-6.84-6.83-10.64-9.66c0.13,0.41,0.25,0.89,0.55,1.1
			c0.25,0.2,0.02,0.72-0.23,0.51c-0.56-0.43-0.7-1.29-0.91-2.02c-1.31-0.54-1.73-2.67-0.38-3.53c2.14-1.08,4.42,0.76,6.45,1.59
			c4.15,2.3,8.47,4.96,11.4,9.56c1.18-2.23,2.59-4.29,4.33-5.78c1.03-1.97,3.16-2.54,4.64-1.06c1.34,1.29,1.66,4.07,0.57,5.75
			c-1.45,2.32-2.95,4.37-4.22,6.7c-1.15,2.65-2.28,5.91-4.61,5.91C33.17,152.21,32.66,152.08,32.09,151.78z"/>
		<path class="st12" d="M49.23,54.48c-0.05-0.41,0.38-0.48,0.5-0.21c0.92-0.01,1.22-1.22,1.22-2.9l0.17-0.24l0.22-0.31l0.21-0.3
			l0.21-0.3l0.22-0.3l0.04-0.06c0.04,2.06-0.3,3.93-1.73,4.93c-0.12,0.06-0.31,0.11-0.5,0.11C49.53,54.9,49.28,54.8,49.23,54.48z"/>
		<path class="st11" d="M46.9,72.11c-2.38-1.31-0.26-4.98,0.49-6.93c-1.7-3.02,1.62-7.3,2.65-10.06c1.41-2.88,2.86-5.74,4.33-8.57
			l0.09-0.13l0.17-0.25l0.17-0.26l0.17-0.26l0.17-0.27l0.18-0.28l0.18-0.29l0.19-0.29l0.19-0.3l0.19-0.31l0.19-0.32l0.19-0.33
			l0.2-0.34l0.2-0.34l0.2-0.35l0.19-0.35l0.19-0.35l0.18-0.34l0.1-0.18l5.89,3.46c-3.52,5.45-6.51,11.55-9.84,17.14
			c-1.14,2.22-2.29,4.43-3.45,6.62c-0.91,1.36-1.55,3.92-3.06,3.92C47.13,72.15,47.02,72.14,46.9,72.11z"/>
		<path class="st11" d="M63.25,43.79l-0.44-0.65l-0.44-0.73l-0.45-0.83l-0.46-0.93l-0.47-1.03l-0.28-0.63l0.61-0.29l0.92-0.45
			l0.95-0.48l0.96-0.5l0.96-0.51l0.96-0.54l0.94-0.55l0.93-0.58l0.03-0.02c0,0.26-0.02,0.51-0.08,0.76
			c3.34-3.27,6.28-1.98,8.98,1.67c0.24,0.27,0.31,0.73,0.1,1.06c-0.19,0.32-0.57,0.41-0.82,0.14c-0.82-0.87-1.62-1.94-2.54-2.6
			c-1.39-0.77-2.98-0.24-4.17,0.77c-2.12,2.22-4.01,4.76-5.77,7.47L63.25,43.79z"/>
		<path class="st11" d="M58.25,39.89l0.14-0.3l0.13-0.3l0.13-0.3l0.12-0.29l0.12-0.29L59,38.11l0.1-0.29l0.04-0.11
			c0.2-0.35,0.4-0.71,0.59-1.06l0.24,0.6l0.52,1.23l0.22,0.5l-0.26,0.13l-0.82,0.38l-0.76,0.35l-0.68,0.29l-0.06,0.02L58.25,39.89z"
			/>
		<path class="st11" d="M23.1,139.19c-1.45-0.12-1.94-2.18-3.09-2.95c-1.62-1.69-4.23-2.41-5.34-4.7c0,0,0,0,0.01,0
			c-0.58-3.74,3.3-1.8,4.75-1.25c0.4-2.17,2.34-2.54,3.79-2.88c0.69-1.15,1.86-1.07,2.81-0.53c0.65-0.11,1.3-0.21,1.95-0.31
			c1.1-0.14,2.19-0.38,3.29-0.38c2.04-0.07,3.48,3.11,2.37,5.36c-0.46,1.01-1.23,1.52-2.01,2.01c-1.57,1.02-3.08,2.17-4.54,3.44
			c-1.1,0.92-2.22,2.22-3.58,2.22C23.37,139.22,23.24,139.21,23.1,139.19z"/>
		<path class="st11" d="M198.28,109.74c-0.05-0.15,0.01-0.33,0.12-0.39c1.06-0.57,2.1-1.17,3.15-1.77c0.12-0.07,0.26,0.01,0.3,0.16
			c0.05,0.15-0.01,0.33-0.12,0.39c-1.05,0.6-2.09,1.2-3.15,1.77c-0.03,0.02-0.06,0.02-0.09,0.02
			C198.4,109.92,198.31,109.85,198.28,109.74z"/>
		<path class="st11" d="M193.92,102.36c-0.99-1.94,0.97-3.86,1.49-5.61c0.84-1.65,5.39-14.99,4.86-6.44
			c0.29-0.04,0.56,0.02,0.82,0.17c0.81-2.51,2.77-6.46,4.52-2.58c0.44,1.8,0.14,3.78,0.27,5.65c-0.08,2.47,0.43,5.02,0.1,7.43
			c-0.54,1.76-1.77,1.54-2.99,1.33c-0.62-0.11-1.23-0.22-1.76-0.07c-1.97,0.09-3.91,0.72-5.88,0.84
			C194.81,103.07,194.27,102.94,193.92,102.36z M196.56,99.37c0.23-0.06,0.47-0.13,0.7-0.19c-0.13-0.02-0.26-0.07-0.39-0.14
			c-0.07-0.04-0.14-0.08-0.2-0.13C196.63,99.06,196.6,99.21,196.56,99.37z M198.9,98.15c-0.14,0.3-0.34,0.55-0.56,0.73
			c0.92-0.24,1.86-0.49,2.79-0.66c0.45-0.09,0.9-0.16,1.36-0.21c-0.02-0.47-0.04-0.94-0.05-1.41c-0.69,1.02-2.02,1.23-2.73,0.12
			C199.43,97.18,199.15,97.66,198.9,98.15z M198.65,92.14c0.03-0.02,0.05-0.05,0.08-0.07c0.12-0.33,0.26-0.65,0.42-0.95
			c0.18-0.34,0.47-0.58,0.78-0.72c-0.05-0.05-0.09-0.13-0.09-0.23c0-0.51-0.01-1.01-0.03-1.52
			C199.41,89.8,199.02,90.96,198.65,92.14z"/>
		<path class="st11" d="M61.41,40.53l-0.42-0.92l-0.28-0.63l0.61-0.29l0.92-0.45l0.95-0.48l0.96-0.5l0.96-0.51l0.14-0.08
			c-0.49,2.13-1.33,3.98-3.03,3.98C61.98,40.65,61.71,40.61,61.41,40.53z"/>
		<path class="st11" d="M59.22,37.45l0.08-0.22l0.1-0.31l0.1-0.31l0.09-0.31l0.39,0.96l0.52,1.23l0.22,0.5l-0.26,0.13l-0.57,0.26
			C59.48,38.82,59.29,38.16,59.22,37.45z"/>
		<path class="st11" d="M84.16,18.82c-1.13-1.09-1.75-2.8-2.43-4.43l0.13-0.29c0.72,0.62,1.47,1.09,2.31,1.48
			c0.56,0.26,1.14,0.44,1.75,0.45c0.02,0,0.04,0,0.06,0c0.79,0,1.61-0.27,2.33-0.78c0.23,2.18-1.23,4.06-2.82,4.06
			C85.06,19.33,84.6,19.17,84.16,18.82z"/>
		<path class="st11" d="M47.01,59.19c-0.07-0.02-0.14-0.06-0.22-0.08l0.05-0.13l0.17-0.4l0.18-0.41l0.19-0.43l0.19-0.43l0.2-0.43
			l0.2-0.43l0.21-0.43l0.21-0.42l0.21-0.4l0.2-0.39l0.21-0.37l0.21-0.36l0.2-0.35l0.21-0.34l0.2-0.34l0.21-0.33l0.21-0.32l0.21-0.32
			l0.21-0.31l0.21-0.31l0.22-0.31l0.22-0.31l0.21-0.3l0.21-0.3l0.22-0.3l0.21-0.3l0.21-0.29l0.21-0.29l0.02-0.03
			c-0.01,0.14-0.03,0.28-0.04,0.41c-0.47,3.69-1.09,9.94-4.53,9.94C47.73,59.36,47.39,59.31,47.01,59.19z"/>
		<path class="st11" d="M46.85,58.98l0.17-0.4l0.18-0.41l0.19-0.43l0.19-0.43l0.2-0.43l0.2-0.43l0.2-0.43l0.08-0.15
			c-0.15,1.36-0.58,2.59-1.44,3.14L46.85,58.98z"/>
		<path class="st11" d="M43.73,66.28l0.06-0.15l0.06-0.15l0.06-0.15l0.06-0.16l0.07-0.16l0.07-0.17l0.08-0.17l0.07-0.18l0.08-0.19
			l0.08-0.19l0.08-0.2l0.09-0.2l0.09-0.2l0.09-0.22l0.09-0.22l0.1-0.22l0.1-0.22l0.1-0.23l0.1-0.24l0.1-0.24l0.11-0.25l0.11-0.26
			l0.12-0.27l0.12-0.28l0.13-0.29l0.13-0.31l0.14-0.33l0.15-0.34l0.15-0.36l0.16-0.37l0.17-0.38l0.17-0.4l0.18-0.41l0.19-0.43
			l0.13-0.3c-0.14,0.71-0.32,1.4-0.54,2.09c0.33,0.36,0.07,0.72-0.26,0.88c-0.44,1.33-1.15,2.45-1.61,3.77
			c-0.22,0.86-0.74,1.98-1.41,2.14L43.73,66.28z"/>
		<path class="st11" d="M39.16,79.11c-2.65-1.42-0.9-4.9,0.22-7.42l0.02-0.02l0.08-0.07l0.08-0.07l0.09-0.07l0.08-0.07l0.09-0.07
			l0.09-0.07l0.09-0.07l0.09-0.07l0.09-0.07l0.09-0.07l0.09-0.07l0.09-0.07l0.08-0.07l0.08-0.07l0.08-0.06l0.08-0.06l0.07-0.06
			l0.07-0.06l0.07-0.06l0.07-0.06l0.07-0.06l0.06-0.06l0.06-0.06l0.07-0.06l0.06-0.06l0.06-0.06l0.06-0.06l0.06-0.07l0.06-0.06
			l0.06-0.07l0.06-0.07l0.06-0.07l0.06-0.07l0.06-0.07L42,69.36l0.06-0.08l0.06-0.08l0.06-0.08l0.06-0.08l0.06-0.09l0.06-0.09
			l0.06-0.09l0.06-0.09l0.06-0.09l0.06-0.09l0.06-0.09l0.06-0.1l0.06-0.1l0.05-0.1l0.06-0.1l0.05-0.11l0.06-0.11l0.05-0.11
			l0.06-0.11l0.06-0.11l0.05-0.12l0.06-0.12l0.06-0.13l0.06-0.13l0.06-0.13l0.06-0.13l0.06-0.14l0.06-0.14l0.06-0.14l0.06-0.15
			l0.06-0.15l0.06-0.15l0.06-0.16l0.07-0.16l0.07-0.17l0.08-0.17l0.07-0.18l0.08-0.19l0.08-0.19l0.08-0.2l0.09-0.2l0.09-0.2
			l0.09-0.22l0.09-0.22l0.1-0.22l0.1-0.22l0.1-0.23l0.1-0.24l0.1-0.24l0.11-0.25l0.11-0.26l0.12-0.27l0.12-0.28l0.13-0.29l0.13-0.31
			l0.14-0.33l0.15-0.34l0.15-0.36l0.16-0.37l0.17-0.38l0.17-0.4l0.18-0.41l0.19-0.43l0.19-0.43l0.2-0.43l0.2-0.43l0.18-0.37
			c0.29-0.36,0.59-0.71,0.89-1.06c2.26-3.13,6.01-10.1,9.53-9.78c1.34,0.2,2.2,2.19,1.65,3.78c-1.28,2.75-3.54,4.56-5.25,6.87
			c-2.7,3.21-4.98,6.93-7.17,10.73c-1.52,2.84-3,5.71-4.51,8.56c-0.93,1.58-2.04,4.02-3.71,4.02
			C39.48,79.17,39.32,79.15,39.16,79.11z"/>
		<path class="st11" d="M39.2,78.42c-3.55-3.19,1.55-9.49,2.92-12.77c1.94-3.35,2.42-7.76,4.39-11.08c2.54-3.7,5.46-6.94,8.31-10.23
			c0.98-1.04,1.99-2.21,3.06-3.22l3.07,1.81c-0.45,0.39-0.88,0.83-1.31,1.27c1.35,3.31-2.04,5.2-3.28,7.5
			c-3.13,5-5.93,10.31-8.86,15.51c-1.19,2.19-2.36,4.39-3.47,6.64c-0.67,2.12-1.72,5.07-3.51,5.07
			C40.13,78.91,39.69,78.76,39.2,78.42z"/>
		<path class="st11" d="M61.8,43.42l0.62,0.36c-0.06,0.06-0.14,0.09-0.21,0.09C62.01,43.86,61.82,43.68,61.8,43.42z"/>
		<path class="st11" d="M62.37,42.4l-0.15-0.28c0.02-0.05,0.03-0.11,0.04-0.16c-0.03,0.02-0.07,0.04-0.1,0.06l-0.24-0.45l-0.46-0.93
			l-0.47-1.03l-0.22-0.51c0.45-0.19,0.92-0.33,1.41-0.39c1.33-0.21,2.52,2.17,1.04,3.07c-0.18,0.39-0.32,0.82-0.47,1.24L62.37,42.4z
			"/>
		<path class="st12" d="M20.98,105.96c-0.41-0.23-0.69-0.78-0.7-1.34c-0.22-1.45-0.24-2.96-0.32-4.44
			c-0.23-4.14-0.69-8.3-0.76-12.45c0,0,0.01,0,0.01,0c0.17-2.36,3-2.66,3.41-0.3c0.24,2.4,0.3,4.84,0.51,7.25
			c0.17,1.7,0.18,3.45,0.5,5.11c0.45,1.86,0.79,4.84-1.15,5.36c-0.17,0.57-0.62,0.92-1.07,0.92
			C21.26,106.07,21.12,106.04,20.98,105.96z"/>
		<path class="st12" d="M12.37,105.29c-0.54-1.22-0.09-2.7,0.07-4c0.75-4.58,1.79-9.08,2.2-13.74c0.23-2.34,2.83-2.51,3.31-0.27
			c0.26,1.72-0.08,3.34-0.11,5.04c-0.35,3.65-0.76,7.28-1.27,10.9c-0.14,1.41-1.31,2.37-2.34,1.87c-0.15,0.55-0.57,0.84-0.98,0.84
			C12.89,105.95,12.55,105.74,12.37,105.29z"/>
		<path class="st12" d="M60.49,163.52c-0.83-0.63-1.2-2.16-0.65-3.24c1.13-2.25,2.31-4.47,3.34-6.45c1.84-3.75,3.87-6.83,5.38-10.75
			c-0.19,0.31-0.34,0.66-0.5,1.01c-0.15,0.34-0.54,0.04-0.4-0.3c0.33-0.63,1.58-3.6,2.02-1.81c1.14-1.88,2.22-3.85,3.35-5.76
			c0.48-0.83,1.35-1.01,2.04-0.56c0.9-1.09,2.27-2.05,3.3-0.66c0.83,1.02,0.64,2.77-0.21,3.67c-3.1,4.59-6.17,9.21-8.94,14.15
			c-0.88,1.26-1.26,2.95-2.34,3.87c-0.74,1.13-1.19,2.95-2.43,3.26c-0.81,1.37-1.63,3.91-3.03,3.91
			C61.14,163.86,60.83,163.76,60.49,163.52z"/>
		<path class="st12" d="M172.46,168.08c-1.7-1.13-2.69-3.52-4.06-5.2c-1.86-2.85-3.71-5.68-5.73-8.34c-1.1-1.57-2.18-3.15-3.23-4.76
			c-0.75-1.27-2.09-2.6-1.64-4.39c-0.77-1.4-2.04-2.65-2.19-4.44c-0.02-1.22,0.8-2.3,1.74-2.27c1.65,0.25,2.48,2.67,3.8,3.77
			c2.2,3.16,4.72,5.91,7.19,8.72c1.15,1.79,4.76,3.54,3.5,6.33c0.78,1.06,1.77,2.55,1.2,4.09c0.94,1.54,2.73,3.71,1.59,5.75
			c-0.35,0.59-0.91,0.93-1.47,0.93C172.92,168.27,172.69,168.21,172.46,168.08z"/>
		<path class="st12" d="M195.02,125.82c-2.24-2.47-5.17-3.58-7.4-6.02c-0.68-1.02-0.06-2.8,0.97-2.84
			c-0.32-0.31-0.43-0.89-0.22-1.35c0.77-1.81,4.1,2.48,5.24,3.01c1.2,0.8,4.51,1.94,3.07,4.3c1.13,1.22,0.32,3.28-0.82,3.28
			C195.58,126.19,195.3,126.08,195.02,125.82z"/>
		<path class="st15" d="M184.14,174.77c-1.97,1.57-3.52-1.85-5-3.01c-2.87-2.76-5.53-5.88-8.15-9.03c-1.16-1.69-2.92-3.3-3.1-5.7
			c-0.02-2.08,1.27-2.43,2.52-2.85c3.99-3.74,8.63-7.12,11.34-12.57c-0.39,0.34-0.75,0.73-1.12,1.11c-0.31,0.32-0.68-0.3-0.37-0.62
			c0.41-0.43,0.81-0.85,1.24-1.23c0.33-0.43,1.02-0.53,1.09,0.25c0,0.97-0.47,1.83-0.85,2.63c-2.53,5.09-6.95,7.89-9.67,12.73
			c3.09,4.1,6.34,7.85,10.12,10.85c-4.9-20.54,1.33-12.44,12.01-10.42c1.59-1.99,3.68,0.44,3,2.92c-0.54,2.33-2.61,2.11-4.05,1.57
			c-2.97-0.79-5.92-1.76-8.86-2.72c0.64,3.87,1.44,7.7,2.42,11.45c0.71,1.97,0.89,5.05-1.33,5.21
			C184.93,175.34,184.52,175.15,184.14,174.77z"/>
		<path class="st15" d="M59.92,164.51c-1.2-0.33-1.55-1.96-2.37-2.9c-2.1-2.34-4.82-3.48-6.79-6.04c-0.51-0.3-0.58-0.72-0.21-1.27
			c0.19-0.39,0.64,0.02,0.41,0.38c0.96,0.41,1.75,1.3,2.64,1.9c1.26,0.79,2.62,1.35,3.86,2.19c1.36,0.6,2.3,2.1,3.54,2.86
			c0.85-0.47,1.76,0.75,1.38,1.85c-0.28,0.86-0.96,1.21-1.65,1.21C60.46,164.68,60.18,164.62,59.92,164.51z"/>
		<path class="st15" d="M0.18,142.05c-0.27-0.6-0.23-1.37,0.1-1.92c0.2-0.35,0.46-0.64,0.72-0.91c-0.79-2.01,0.79-3.33,2.02-4.03
			c2.11-1.26,5.81-4.68,8-2.6c0.57-0.07,1.15-0.01,1.7-0.21c1.17-0.2,1.15,1.82,0.06,1.97c0.69,1.16,0.06,2.73-0.96,3.06
			c1.19,0.15,1.84,2.13,1.08,3.35c-0.24,0.41-0.65,0.75-1.05,0.79c-2.24,0.23-4.51,0.25-6.74-0.2c-1,0.37-2.42,1.55-3.59,1.55
			C1,142.91,0.54,142.68,0.18,142.05z"/>
		<path class="st11" d="M190.04,101.63c-0.81-0.58-1.15-2.1-0.63-3.13c0.85-1.7,1.64-3.45,2.42-5.2c0.76-1.68,1.48-3.39,2.16-5.13
			c0.19-0.48,0.53-0.81,0.91-0.98c1.3-4.22,1.97-8.69,2.79-13.09c1.34-5.42,1.38-11.15,0.92-16.77c-2.35,3.73-4.94,7.24-6.56,11.59
			c-0.14,0.38,0,0.77,0.04,1.16c0.29,2.37-2.17,3.68-3.27,1.8c-1.71,0.4-2.32-2.1-3.15-3.52c-2.72-5.13-5.69-10.02-8.55-15.02
			c-3.32-5.51-6.31-11.69-10.62-15.99c-4.83-4.35-9.63-8.68-14.8-12.36c-2.04-1.58-4.09-3.13-6.05-4.84
			c-1.41-1.25-3.87-3.19-2.62-5.75c-0.63-2.3,1.64-3.56,3.07-3.68c4.09-0.5,7.64,2.67,11.1,5.02c1.39,0.88,2.83,1.71,4.09,2.89
			c5.22,5.49,10.21,11.43,14.43,18.25c6.3,7.27,11.36,16.25,14.65,26.34c2.28-4.08,4.68-8.09,7.46-11.63
			c0.82-1.22,2.25-1.56,3.17-0.29c1.01,1.57,0.96,3.84,1.2,5.77c0.39,5.64,0.54,11.41-0.72,16.89c-1.09,4.32-2.23,17.11-5.47,18.76
			c-0.38,0.9-0.76,1.8-1.15,2.69c-0.24,0.53-0.47,1.07-0.7,1.59c1.6-0.21,3.19-0.58,4.8-0.79c0.07-1.09,0.24-2.49,1.26-2.65
			c0.59-0.1,1.16,0.33,1.4,1.03c0.71,1.81,1.09,4.53-0.47,5.78c-2.59,0.99-5.44,1.03-8.14,1.4c-0.59,0.02-1.2,0.21-1.8,0.21
			C190.81,102.01,190.41,101.92,190.04,101.63z M181.38,52.75c-0.9-2.11-1.84-4.2-3.29-5.75C179.19,48.91,180.28,50.84,181.38,52.75
			z M147.59,14.21c0.41,0.23,0.81,0.48,1.2,0.74c0-0.12,0-0.24,0.02-0.36c-0.46-0.19-0.92-0.36-1.39-0.47
			C147.48,14.15,147.54,14.18,147.59,14.21z"/>
		<path class="st11" d="M194.65,97.65c-0.41-0.54-0.03-1.16,0.36-1.48c0.89-1.13,1.57-2.37,2.35-3.62c0.93-1.59,1.79-3.26,2.73-4.85
			c0.1-0.3,0.49-0.4,0.52,0.02c-0.9,2.55-2.24,4.85-3.43,7.19c-0.49,0.7-1.26,2.92-2.11,2.92
			C194.92,97.84,194.78,97.79,194.65,97.65z"/>
		<path class="st11" d="M176.93,108.19c-1.47-0.39-2.54-2.07-3.68-3.25c-2.23-3-4.21-6.29-6.36-9.38
			c-2.95-5.12-7.48-7.62-11.66-10.65c-8.19-4.41-17-6.49-25.61-9.04c-4.21-0.88-8.48-0.82-12.74-0.76
			c-1.68,0.02-3.36,0.05-5.03,0.02c-2.43,0.02-4.87,0.06-7.3,0.33c-1.73,0.26-3.51,0.1-4.64,2c-0.47,2.99-3.47,4.28-4.99,6.4
			c-0.73,1.27-2.34,1.53-2.83-0.15c-0.76,0.86-1.66,1.81-2.38,2.6c-0.47,0.6-1.08,1.18-1.77,0.87c-1.45-0.74,0.98-3.64,1.35-4.71
			c2.31-4.44,4.85-8.68,7.63-12.64c1.36-2.01,2.79-3.89,4.29-5.72c0.49-0.79,1.61-1.15,1.68-2.22c0.03-0.49,0.63-0.39,0.59,0.11
			c0.03,0.64-0.26,1.11-0.65,1.46c-4.71,5.45-8.75,11.9-12.16,18.79c1.73-2.08,3.46-3.96,5.36-5.75c-0.43-7.23,13.79-5.74,17.55-6.1
			c1.39,0.01,2.78,0,4.18-0.02c3.96-0.06,7.92-0.11,11.84,0.64c6.21,1.63,12.41,3.45,18.51,5.65c4.08,1.58,8.11,3.08,11.71,6.05
			c2.6,1.98,5.5,3.47,7.55,6.45c3.6,4.59,6.14,9.88,9.97,13.96c1.33-1.64,1.58-4.01,1.43-6.27c-0.21-2.35-0.24-4.81-0.92-7.02
			c-3.72-7.41-8.09-14.34-13.14-20.29c-3.51-4.21-6.54-9.08-10.68-12.33c-1.37-1.6-5.01-2.39-4.17-5.47
			c0.36-1.09,1.41-1.71,2.25-1.19c4.46,2.67,8.53,6.5,11.78,11.29c6.34,7.72,12.33,15.7,16.98,25.22
			c1.61,4.51,1.96,10.06,1.21,14.92c-0.77,2.73-2.44,6.19-4.93,6.19C177.07,108.2,177,108.19,176.93,108.19z"/>
		<path class="st11" d="M123.92,135.68c-4.33-0.48-8.48-2.25-12.63-3.79c-1.94-0.73-3.87-1.53-5.8-2.33
			c-0.44-0.18-0.81-0.52-1.04-1.04c-0.79-1.67,0.51-3.89,1.97-3.32c4.67,1.62,9.32,3.53,14.03,4.95c4.43,1.23,9.02,1.12,13.49,0.4
			c3.51-0.74,7.13-2.23,10.69-2.27c3-0.14,5.92-1.16,8.84-1.99c3.76-0.94,7.62-1.46,10.99-4.06c2.31-1.48,4.75-2.77,6.75-4.93
			c1.77-2.28,3.04-5.11,4.6-7.62c-5.72,0.76-11.4,2.27-17.16,2.11c-2.46,0.04-4.9-0.29-7.34-0.63c-2.69-0.37-5.38-0.74-8.09-0.6
			c-12.01-0.01-24.07-0.85-36.02-2.28c-3-0.26-6.02-0.15-9.03-0.06c-2.24,0.08-4.47,0.15-6.67,0.08c-0.57-0.09-1.28,0.09-1.7-0.5
			c-0.26-0.43-0.15-1.06,0.2-1.34c1.15-0.61,2.51-0.32,3.71-0.5c2.41-0.2,4.84-0.52,7.19-0.71c7.83-0.45,15.68-0.09,23.52,0.27
			c7.31,0.34,14.62,0.68,21.94,0.36c5.26,0.49,10.51,1.54,15.81,1.09c4.47-0.53,8.91-1.42,13.37-2.08c1.2-0.17,2.4-0.52,3.6-0.59
			c0.88-0.02,1.7,0.85,1.93,1.94c0.36,2.04-0.88,3.76-1.73,5.3c-1.56,2.6-2.99,5.35-4.6,7.9c-1.7,2.57-4.06,4.18-6.37,5.65
			c-2.93,1.77-5.77,3.98-9.01,4.66c-3.56,0.7-7.06,1.84-10.59,2.74c-2.75,0.68-5.61,0.45-8.34,1.2c-4.2,1.41-8.49,2.17-12.8,2.17
			C126.39,135.87,125.15,135.81,123.92,135.68z"/>
		<path class="st11" d="M179.02,86.08c-3.7-4.82-7.94-10.2-12.13-14.24c-3.04-3.18-6.89-4.45-10.03-7.43
			c-5.87-2.71-11.9-4.7-17.97-6.52c-5.35-1.76-10.89-3.12-16.42-2.99c-3.79,0.22-7.17,2.52-10.54,4.58c-3,1.74-6.4,2.85-9.47,4.15
			c-2.52,1.64-4.87,3.67-7.38,5.33c-1.02,1.06-2.24,2.58-3.61,1.58c-0.74,0.86-1.69,1.68-2.13,2.8c-0.08,2.52,0.28,10.62,2,3.83
			c0.28-0.79,0.75-1.44,1.19-2.09c0.19-0.29,0.56,0.07,0.36,0.36c-0.83,1.08-1.32,2.34-1.69,3.76c-0.17,0.79-0.91,1.72-1.52,1.05
			c-0.95-1.67-0.98-3.98-1.37-5.93c-0.49-1.69,0.45-3.06,1.29-4.2c-0.46-0.1-0.89-0.42-1.17-0.9c-0.28-0.48-0.4-1.06-0.37-1.62
			c-1.98,0.5-2.95-3.06-1.32-4.48c1.94-1.33,4.03-2.37,6.03-3.56c1.71-0.85,3.51-2.25,5.39-1.63c0.18-0.16,0.37-0.33,0.54-0.5
			c0.08-0.65,0.36-1.24,0.82-1.59c0.55-0.42,1.29-0.39,1.82,0.06c2.74-2.38,5.69-4.26,8.61-6.22c1.32-0.86,3.32-2.49,4.41-0.35
			c4.76-1.82,9.76-2.14,14.69-2.05c0.49,0.08,1.03,0.03,1.58-0.01c1.18-0.1,2.38-0.2,3.15,0.99c13.52-0.39,11.68,2.04,22.26,9.85
			c2.1,1.98,4.55,2.95,6.81,4.53c2.93,2.04,5.59,4.67,8.22,7.29c4.02,4.01,8.1,8.42,10.99,13.82c0.38,1.64-0.72,3.03-1.84,3.03
			C179.81,86.78,179.38,86.57,179.02,86.08z M139.76,53.34c1.19,0.38,2.37,0.75,3.56,1.12c0.79,0.25,1.59,0.47,2.38,0.71
			c-1.91-1.68-4.28-1.82-6.51-2.01C139.38,53.21,139.57,53.27,139.76,53.34z"/>
		<path class="st11" d="M84.54,49.18c-0.44-0.24-0.6-0.93-0.37-1.45c1.28-2.95,2.5-5.95,3.75-8.93c2.16-5.27,4.63-10.35,7.48-15.05
			c0.78-1.3,1.53-2.61,2.41-3.81c0.42-0.61,1.05-0.52,1.6-0.36c1.41-1.09,3.85-5.48,5.46-3.47c0.54,0.71,0.61,2.04,0,2.73
			c-1.24,1.42-2.44,2.9-3.64,4.37c1.55-0.5,1.26,2.25,2.27,3.01c0.29,0.27-0.05,0.84-0.34,0.57c-0.76-0.63-0.91-1.97-1.38-2.81
			c-0.51-0.09-1,0.2-1.44,0.5c-2.28,5.67-5.47,10.59-7.7,16.3c-1.17,1.88-2.48,8.2-4.86,6.64c-0.44-0.33-0.73-0.95-0.77-1.6
			c-0.44,1.03-0.96,2-1.48,2.95c-0.14,0.32-0.41,0.5-0.68,0.5C84.73,49.26,84.63,49.23,84.54,49.18z"/>
		<path class="st11" d="M96.33,61.96c-1.64-2.99,4.61-7.14,6.21-8.55c1.85-2.41,3.69-4.84,5.44-7.39c-4.78,2.88-9.3,6.42-13.63,10.3
			c-0.95,0.93-1.94,1.89-2.86,2.92c-0.1,0.11-0.25,0.06-0.33-0.06c-0.27-0.58,0.67-1.19,0.94-1.55c4.07-4.06,8.34-7.74,12.77-11.09
			c1.06-0.5,5.68-5.4,5.56-1.95c-0.51,3.11-2.74,5.17-4.21,7.56c0.85,0.85,0.69,2.66-0.17,3.42c-1.61,0.99-3.27,1.98-4.78,3.24
			c-0.95,0.89-2.6,3.91-3.95,3.91C96.97,62.71,96.63,62.49,96.33,61.96z"/>
		<path class="st11" d="M83.96,39.26c-3.92-0.37,4.54-8.44,5.58-9.23c2.36-2.07,5.73-2.94,8.13-0.54c0.12,0.09,0.16,0.29,0.09,0.45
			c-0.37,0.5-0.88-0.48-1.26-0.6c-0.96-0.68-2.09-0.65-3.14-0.52c1.44,1.41-1.19,3.83-1.77,5.14c-0.84,1.18-2.81,5.65-3.76,2.39
			c-1.21,1.02-2.3,2.91-3.84,2.91C83.99,39.26,83.98,39.26,83.96,39.26z M84.5,37.21c2.37-2.42,4.5-5.12,6.85-7.56
			C88.66,31.45,86.37,34.17,84.5,37.21z"/>
		<path class="st14" d="M178.08,102.7c-1.34-0.14-2.68-1.73-2.02-3.55c-1.43-3.64-4.16-5.72-6.7-7.89
			c-1.89-1.71-3.94-3.05-5.98-4.39c-2.74-1.96-5.47-4-8.52-5.03c-2.48-1.06-5.12-1.16-7.62-2.09c-4.36-2.01-8.83-3.59-13.26-5.25
			c-4.18-2.09-8.61-2.67-12.99-3.6c-5.28-1.35-10.5,0.76-15.33,3.39c-3.95,1.75-7.89,3.47-11.25,6.8c-2.35,2.12-4.33,4.82-6.33,7.44
			c-1.55,2.08-4.16-0.83-2.76-3.16c1.27-2.09,2.52-4.21,3.78-6.32c-0.49-2.73,2.22-3.88,3.42-5.51c-1.45-3.87,3-5.18,4.6-7.32
			c5.55-5.35,11.8-9.64,18.56-11.68c1.75-0.64,3.38-1.44,4.91-0.33c1.31,0.44,1.77,2.69,0.84,3.94c-0.68,1.07-1.78,1.19-2.71,1.7
			c-0.28,1.74-1.78,1.78-2.82,2.31c-3.92,1.77-7.43,4.21-10.63,7.18c8.96-5.2,15.1-3.76,24.33-1.48c3.64,0.9,6.92,2.98,10.55,3.86
			c2.89,0.94,5.63,2.57,8.52,3.57c2.14,0.65,4.36,0.86,6.47,1.66c3.95,1.22,7.44,3.89,10.98,6.37c4.61,3.31,9.77,6.62,12.72,12.51
			c0.61,1.4,1.49,2.83,1.55,4.48c0.01,1.37-0.92,2.43-1.93,2.43C178.32,102.74,178.2,102.73,178.08,102.7z"/>
		<path class="st14" d="M184.39,75.42c-2.42-4.15-5.03-8.14-6.88-12.82c-3-3.21-6.25-5.96-9.69-8.32
			c-6.52-4.6-11.49-12.16-17.92-16.96c-2.77-1.92-5.64-4.24-8.35-6.17c-2.4-1.54-4.64-2.14-7.14-3.01c-3-1.04-5.86-2.63-8.9-3.46
			c-4.02-0.63-8.19-1.03-12.2-0.12c-1.05,0.31-2.12,0.59-3.15,0.99c-2.24,2.33-4.44,4.74-6.71,7.03
			c-4.15,3.68-8.15,7.65-11.47,12.59c1.86-1.71,3.71-3.43,5.61-5.05c1.65-1.43,3.31-3.06,5.33-3.41c2.13-0.41,2.78,3.7,0.7,4.46
			c-2.37,1.06-4.18,3.24-6.24,4.89c-4.11,3.8-8.24,7.61-12.4,11.3c-2.03,2.27-4.32-1.41-2.41-3.8c-1.47-4.01,6.53-19.28,9.18-22.03
			c3.92-3.84,8.43-6.96,13.03-9.12c1.42-0.95,2.96-1.47,4.48-2.09c0.62-0.42,1.4-0.52,2-0.05c4.15-1.45,8.49-0.95,12.73-0.64
			c3.61,0.32,6.97,2.26,10.4,3.57c4.84,1.45,9.45,3.67,13.57,7.36c2.8,2.07,5.69,3.99,8.16,6.72c3.77,3.54,7.09,7.8,10.82,11.38
			c6.63,5.35,14.34,10.36,17.79,19.99c0.49,1.57,2.37,6.6,0.69,7.33c-0.08,0.03-0.16,0.04-0.24,0.04
			C184.88,76.02,184.57,75.8,184.39,75.42z M179.53,65.21c0.89,1.73,1.83,3.41,2.95,4.92c-0.67-1.51-1.41-2.95-2.18-4.1
			c-0.31-0.45-0.63-0.89-0.73-0.89C179.54,65.13,179.53,65.15,179.53,65.21z"/>
		<path class="st14" d="M141.09,128.73c-4.73-0.09-9.4-1.13-14.11-1.64c-3.1-0.31-6.23,0.06-9.28-0.84
			c-7.39-2.33-14.47-6.06-21.57-9.51c-2.2-1.03-4.5-1.63-6.79-2.27c-1.16-0.32-1.68-2.37-0.96-3.55c-0.1,0-0.21,0-0.34,0
			c-0.83,0.01-2.19,0.03-1.77-1.25c0.9-1.07,2.3-0.92,3.44-1.1c1.87-0.13,3.74-0.13,5.61,0.04c5.02,0.01,9.67,2.4,14.39,4.16
			c2.85,0.67,5.43,0.69,8.22,0.98c0.04,0,0.07,0,0.1,0.01c2.77,0.27,5.55,0.1,8.32-0.08c1.75-0.11,3.51-0.22,5.26-0.22
			c4.01,0.21,8.02,0.71,12.01,1.29c6.02,1.03,11.95,3.22,18.08,2.33c1.56-0.09,3.13-0.17,4.69-0.26c2.47-1.06,5.01-2.23,7.53-2.95
			c1.81-0.7,3.3,2.05,2.08,3.99c-2.68,3.34-7.27,2.86-10.51,4.41c-7.4,3.68-15.1,6.47-23.06,6.47
			C141.99,128.76,141.54,128.75,141.09,128.73z M92.1,110.4c1.72,0.4,3.45,0.99,5.09,1.76c4.91,2.24,9.69,5.04,14.72,6.9
			c2.87,1.19,5.74,2.59,8.76,2.95c2.51,0.18,5.05,0.09,7.55,0.43c4.53,0.55,9.05,1.53,13.62,1.51c4.43-0.08,8.9-0.59,13.17-2.18
			c-7.5-1.52-14.95-3.39-22.56-3.92c-1.71-0.03-3.42-0.01-5.12,0.01c-4.5,0.06-8.99,0.12-13.44-0.79
			c-4.27-0.26-8.03-2.77-11.91-4.83c-4.88-1.95-10.25-2.96-15.3-2.13c0,0,0.01,0,0,0c0.42,0.29,0.9,0.26,1.38,0.22
			c0.28-0.01,0.55-0.03,0.82,0.01c0.33-0.26,0.69-0.35,1.06-0.35C90.65,109.98,91.41,110.32,92.1,110.4z"/>
		<path class="st14" d="M118.05,113.76c0.01,0,0.03,0,0.05,0C118.08,113.76,118.07,113.76,118.05,113.76z"/>
		<path class="st14" d="M118.03,113.76C118.03,113.76,118.02,113.76,118.03,113.76c0.01,0,0.02,0,0.03,0
			C118.04,113.76,118.04,113.76,118.03,113.76z"/>
		<path class="st14" d="M118.02,113.76c-0.01,0-0.02,0-0.03,0C118,113.75,118.01,113.76,118.02,113.76
			C118.02,113.76,118.02,113.76,118.02,113.76z"/>
		<path class="st14" d="M117.97,113.75c0.01,0,0.01,0,0.02,0C117.99,113.75,117.98,113.75,117.97,113.75z"/>
		<path class="st14" d="M84.64,82.46c-0.01-0.65,0.51-1.1,0.98-0.92c2.54-2.5,5.01-5.11,7.4-7.85c2.15-2.12,4.19-5.59,7.09-5.61
			c0.13,0,0.23,0.14,0.23,0.3c-0.05,0.36-0.35,0.33-0.65,0.31c-0.18-0.01-0.35-0.02-0.46,0.05c-1.8,0.66-3.15,2.54-4.55,4.06
			c-2.24,2.69-4.48,5.4-6.71,8.11c-0.84,0.81-1.38,2.34-2.48,2.51c-0.04,0.01-0.07,0.01-0.11,0.01
			C84.98,83.43,84.64,82.99,84.64,82.46z"/>
		<path class="st10" d="M76.92,7.12c0.02,0.04,0.04,0.07,0.07,0.11c0.31,0.53,0.63,1.06,0.95,1.59c0.27,0.46,0.52,0.95,0.8,1.41
			c0.29,0.49,0.63,0.92,0.97,1.34c0.52,0.72,1.02,1.45,1.64,2.05c0.89,0.87,1.79,1.48,2.84,1.96c0.56,0.26,1.14,0.44,1.75,0.45
			c0.02,0,0.04,0,0.06,0c1.54,0,3.22-1.04,3.99-2.84c0.08-0.18,0.15-0.36,0.22-0.54c0.02,0.07,0.03,0.15,0.05,0.22l-0.19,0.41
			l-0.42,0.9l-0.43,0.92l-0.44,0.93l-0.44,0.92l-0.44,0.9l-0.44,0.89l-0.44,0.87l-0.43,0.85l-0.42,0.83l-0.42,0.82l-0.41,0.81
			l-0.41,0.8l-0.41,0.8l-0.41,0.81l-0.43,0.82L83.23,27l-0.47,0.85l-0.49,0.86l-0.52,0.86l-0.56,0.86l-0.59,0.86l-0.63,0.83
			l-0.17,0.2C78.76,23.94,78.09,15.43,76.92,7.12z"/>
		<path class="st11" d="M68.77,43.37c0.26-0.33,0.52-0.66,0.78-0.99l0.24,0.43l0.39,0.61l0.4,0.54l0.42,0.48l0.43,0.4L68.77,43.37z"
			/>
		<path class="st11" d="M73.36,23.1c0.46-2.17-0.29-4.42-0.57-6.57c-0.24-1.97,1.08-3.74,2.7-3.76c3.7-0.23,5.33,10.35,6.72,13.78
			c0.11,0.36,0.22,0.73,0.33,1.09c0.25-0.25,0.5-0.5,0.75-0.75L83.23,27l-0.47,0.85l-0.49,0.86l-0.52,0.87l-0.56,0.86l-0.59,0.85
			l-0.63,0.83l-0.66,0.8l-0.69,0.75l-0.72,0.7l-0.75,0.65l-0.77,0.6l-0.8,0.56l-0.81,0.52l-0.83,0.49l-0.84,0.46l-0.85,0.45
			l-0.86,0.43l-0.1,0.05C72.23,33.44,73.49,28.36,73.36,23.1z"/>
		<path class="st11" d="M65.62,41.64l0.07-0.13l0.15-0.28l0.14-0.27L66,40.92l0.05-0.02l0.61-0.24l0.68-0.29l0.73-0.32l0.23-0.1
			l-0.2-0.42l-0.46-1.02l-0.35-0.8l0-0.01l0.08-0.28l0.09-0.29l0.08-0.29l0.08-0.29l0.08-0.29l0.07-0.3l0.08-0.3l0.06-0.3l0.06-0.29
			l0.06-0.3l0.05-0.29l0.05-0.29l0.04-0.28l0.04-0.29l0.04-0.28l0.03-0.28l0.03-0.28l0.03-0.29l0.03-0.29l0.03-0.29l0.02-0.29
			l0.02-0.3l0.02-0.3l0.01-0.3l0.01-0.31l0.01-0.3l0-0.29l0-0.29l0.01-0.28l0-0.27l0-0.25l0-0.23l0.01-0.22v-0.2l0-0.18l0-0.17
			l0.01-0.16l0-0.15l0-0.15l0.01-0.14v-0.14l0-0.13l0.01-0.13l0-0.13l0.01-0.13l0.01-0.14l0-0.13l0-0.14l0.01-0.14l0.01-0.14
			l0.01-0.13l0-0.14V25.5c0.29-2.09,0.53-4.17,0.72-6.26c0.47-4.66,0.63-9.57,2.05-13.95c0.86-1.86,2.74-2.35,4.19-1.58
			c0.04,0.08,0.09,0.16,0.13,0.24c0.01,0.02,0.02,0.04,0.03,0.06c0.09,0.45,0.19,0.9,0.34,1.35c0.22,0.68,0.56,1.31,0.9,1.89
			c0.25,0.43,0.51,0.86,0.77,1.29c1.28,7.42,2.07,15.01,3.01,22.54l-0.15,0.22l-0.63,0.84l-0.66,0.8l-0.69,0.75l-0.72,0.7
			l-0.75,0.65l-0.77,0.6l-0.8,0.56l-0.81,0.52l-0.83,0.49l-0.84,0.46l-0.86,0.45l-0.86,0.43l-0.86,0.42l-0.85,0.4l-0.82,0.37
			l-0.54,0.24l0.25,0.52l0.42,0.86l0.41,0.78l0.4,0.69l0.39,0.61l0.4,0.54L71,44.43l0.43,0.4L65.62,41.64z"/>
		<path class="st11" d="M67.96,42.93c0.02-0.42,0.04-0.84,0.07-1.26c-0.3-0.37-0.53-0.82-0.65-1.3l0.7-0.31l0.23-0.1l-0.19-0.41
			l-0.46-1.03l-0.24-0.56c0.06-0.42,0.13-0.83,0.19-1.24l0.04-0.14l0.08-0.3l0.07-0.3l0.08-0.3l0.06-0.3L68,35.07l0.06-0.29
			l0.05-0.29l0.05-0.29l0.04-0.28l0.04-0.29l0.03-0.28l0.03-0.28l0.03-0.28l0.03-0.29l0.01-0.09c0.12-0.61,0.23-1.23,0.35-1.84
			c1.14-6,2.45-11.94,3.56-17.95c0.45-3.2,0.6-6.44,0.8-9.67c0.09-0.98,0-2,0.18-2.95c0.31,0.46,0.61,0.91,0.91,1.35
			c0.54,0.84,1.06,1.68,1.54,2.58c0.01,0.02,0.02,0.04,0.03,0.06c0.09,0.45,0.19,0.9,0.34,1.35c0.22,0.68,0.56,1.31,0.9,1.89
			c0.31,0.53,0.63,1.06,0.95,1.59c0.27,0.46,0.52,0.95,0.8,1.41c0.29,0.49,0.63,0.91,0.97,1.33c0.52,0.72,1.02,1.46,1.64,2.05
			c0.89,0.87,1.79,1.48,2.84,1.96c0.56,0.26,1.14,0.44,1.75,0.45c0.02,0,0.04,0,0.06,0c0.49,0,1-0.11,1.49-0.31
			c0.12,0.78,0.22,1.56,0.29,2.34l-0.33,0.68l-0.44,0.87l-0.43,0.85l-0.42,0.83l-0.42,0.82l-0.41,0.81l-0.41,0.8l-0.41,0.8
			l-0.41,0.81l-0.43,0.82L83.23,27l-0.47,0.85l-0.49,0.86l-0.52,0.86l-0.56,0.86l-0.59,0.86l-0.63,0.83l-0.66,0.8l-0.69,0.75
			l-0.72,0.7l-0.75,0.65l-0.09,0.07c-1.87-1.41-1.69-4.51-1.88-6.87c-0.69,3.12-1.35,6.25-2,9.38l-0.08,0.04l-0.85,0.45l-0.86,0.43
			l-0.86,0.42l-0.85,0.4l-0.82,0.37l-0.54,0.24l0.25,0.53l0.42,0.86l0.41,0.78l0.33,0.57c-0.09-0.01-0.18-0.03-0.28-0.06
			c-0.04,0.36-0.07,0.71-0.11,1.06L67.96,42.93z"/>
		<path class="st11" d="M75.68,3.61c0,0.03,0.01,0.06,0.01,0.08C75.68,3.67,75.68,3.64,75.68,3.61z"/>
		<path class="st12" d="M65.62,41.64l0.07-0.12l0.15-0.28l0.14-0.27L66,40.93l0.06-0.02l0.61-0.25l0.68-0.29l0.73-0.32l0.23-0.11
			l-0.2-0.41l-0.46-1.03l-0.35-0.8l0,0l0.08-0.28l0.09-0.28l0.08-0.28l0.08-0.29l0.08-0.3l0.03-0.13c0.1,0.61,0.18,1.23,0.26,1.85
			c0.07,0.59,0.18,1.25,0.32,1.96l-0.01,0l0.02,0.04c0.21,1.1,0.46,2.3,0.62,3.48L65.62,41.64z"/>
		<path class="st12" d="M67.98,35.14l0.01-0.06l0.06-0.3l0.05-0.29l0.05-0.29l0.04-0.28l0.04-0.28l0.04-0.28l0.03-0.28l0.03-0.28
			l0.03-0.28l0.03-0.29l0.02-0.29l0.02-0.3l0.02-0.3l0.02-0.3l0.01-0.3l0.01-0.31l0.01-0.3l0.01-0.3l0-0.29l0.01-0.28l0-0.27l0-0.25
			l0-0.23l0.01-0.22l0-0.2l0-0.18l0-0.17l0.01-0.16l0-0.16l0-0.15l0.01-0.14l0-0.14l0-0.13l0.01-0.13l0-0.13l0.01-0.13l0.01-0.13
			l0-0.13l0.01-0.14l0.01-0.13l0.01-0.14l0.01-0.13l0.01-0.13l0.01-0.14l0.01-0.13l0.01-0.14l0.01-0.14l0.01-0.13l0.01-0.13
			l0.01-0.13l0.01-0.12l0.01-0.12l0.01-0.12l0.01-0.12l0.01-0.12l0.01-0.12l0.01-0.12l0.01-0.09c0.55,1.1,1.08,2.22,1.59,3.35
			c0.76,1.51,1.68,3.18,1.53,5.03c-0.16,1.88-1.65,3.26-3.13,3.26C68.48,35.26,68.23,35.22,67.98,35.14z"/>
		<path class="st11" d="M65.62,41.64l0.07-0.12l0.15-0.28l0.14-0.27L66,40.92l0.05-0.02l0.61-0.25l0.68-0.29l0.73-0.32l0.23-0.11
			l-0.2-0.41l-0.46-1.03L67.44,38c0.71-1.19,1.43-2.37,2.17-3.54c-0.75-2.18,1.55-4.37,3.11-3.02c1.74-0.01,2.79,2.54,1.93,4.31
			c0.1,0.29,0.16,0.61,0.16,0.92l-0.03,0.02l-0.83,0.49l-0.84,0.46l-0.85,0.45l-0.86,0.43l-0.86,0.42l-0.85,0.4l-0.82,0.37
			l-0.54,0.24l0.25,0.53l0.42,0.86l0.41,0.78l0.4,0.69l0.39,0.61l0.4,0.54l0.39,0.44c-0.03,0.04-0.06,0.09-0.09,0.13L65.62,41.64z"
			/>
		<path class="st11" d="M68.86,41.22c-0.58-0.25-1-0.57-1.29-0.95l0.51-0.22l0.23-0.1l-0.19-0.42l-0.46-1.02l-0.35-0.8V37.7
			l0.09-0.28l0.09-0.29l0.08-0.29l0.08-0.29l0.08-0.29l0.07-0.3l0.08-0.3l0.06-0.3L68,35.07l0.06-0.3l0.05-0.29l0.05-0.29l0.04-0.28
			l0.04-0.29l0.03-0.28l0.03-0.28l0.03-0.28l0.03-0.29l0.03-0.29l0.02-0.29l0.02-0.29l0.02-0.3l0.01-0.3l0.01-0.3l0.01-0.31v-0.07
			c0.34-1.87,0.6-3.7,0.83-5.67c0.9-8.3,1.68-16.68,4.02-24.55c0.28,0.41,0.55,0.82,0.82,1.22c0.54,0.84,1.06,1.68,1.54,2.58
			c0.01,0.02,0.02,0.04,0.03,0.06c0.09,0.45,0.19,0.9,0.34,1.35c0.22,0.68,0.56,1.31,0.9,1.89c0.31,0.53,0.63,1.06,0.95,1.59
			c0.27,0.46,0.52,0.95,0.8,1.41c0.14,0.24,0.3,0.46,0.46,0.68c-0.2,1.11-0.42,2.21-0.66,3.31c-0.43,2.37-1.26,5.97-3.84,5.27
			c-0.44,5.11-0.86,10.25-1.76,15.28c-0.14,0.95-0.28,2.14-0.55,3.24l-0.13,0.07l-0.86,0.43l-0.86,0.42l-0.85,0.4l-0.82,0.37
			l-0.54,0.24l0.25,0.52l0.37,0.77C68.91,41.24,68.89,41.23,68.86,41.22z"/>
		<path class="st11" d="M86.29,17.81c-0.3-0.61-0.6-1.22-0.91-1.82c0.18,0.03,0.37,0.05,0.55,0.06c0.02,0,0.04,0,0.06,0
			c1.54,0,3.22-1.04,3.99-2.84c0.33-0.78,0.62-1.56,0.79-2.41c0.05,0.22,0.09,0.44,0.14,0.65l-0.05,0.12l-0.4,0.86l-0.41,0.88
			l-0.42,0.9l-0.43,0.92l-0.44,0.93l-0.44,0.92l-0.44,0.9l-0.44,0.89l-0.35,0.69C86.84,18.87,86.59,18.31,86.29,17.81z"/>
		<path class="st11" d="M75.68,3.61c0,0.03,0.01,0.06,0.01,0.08C75.68,3.67,75.68,3.64,75.68,3.61z"/>
		<path class="st11" d="M69.28,43.65c-0.01-0.08,0.01-0.16,0.04-0.25c0.11-0.27,0.25-0.54,0.34-0.82l0.13,0.23l0.33,0.52
			c-0.06,0.15-0.11,0.3-0.17,0.45c-0.03,0.08-0.07,0.14-0.12,0.18L69.28,43.65z"/>
		<path class="st11" d="M65.78,41.73c0.81-0.71,1.66-1.32,2.58-1.68l0.2,0.42l0.42,0.86l0.41,0.78l0.22,0.38
			c-0.38,0.21-0.74,0.47-1.08,0.75L65.78,41.73z"/>
		<path class="st10" d="M85.11,28.28c-1.71-5.11-3.31-10.27-5.52-15c-1.2-2.64-2.31-5.68-4.35-7.31c-0.75-0.85-2.69,1.56-2.75-0.22
			c0,0,0,0-0.01,0c4.22-8.81,11.66,8.8,13.31,13.33c3.81-8.84,9.28-7.45,15.89-7.63c1.59-0.23,3.18-0.54,4.76-0.91
			c0.89-0.61,2.18-0.29,2.69,0.9c1.18,3.74-2.12,3.84-4.05,4.25c-2.26,0.53-4.56,0.7-6.85,0.63c-2.14,0.01-4.48-0.39-6.39,1.14
			c-3.09,2.66-3.17,4.89-3.13,9.36C88.92,29.59,86.07,30.94,85.11,28.28z"/>
		<path class="st10" d="M158.9,24.83c-1.55-0.4-4.61,0.45-4.24-2.81c-3.21-2.2-6.18-5.7-9.05-8.38c-1.73-1.72-4.24-2.47-6.21-2.93
			c-4.64-1.31-9.4-1.58-14.12-2.26c-1.93-0.12-3.5-0.35-5.35-0.64c-4.6,0.02-8.89,0.94-13.4,1.71c-3.22,0.65-6.48,0.97-9.68,1.84
			c-3.67,1.14-7.03,3.54-10.11,6.26c0.1,0,0.21,0.01,0.32,0.01c0.45,0,0.45,0.92,0,0.9c-2.98,0.28-1.15-2.13,0.2-3.32
			c5.43-5.88,12.33-8.23,19.19-9.59c4.18-0.95,8.38-1.8,12.62-2.25c2.62,0.03,5.23,0.48,7.85,0.63c7.35,1.2,15.69,0.61,21.82,6.7
			c3.51,3.64,7.13,7.18,11.25,9.6C161.97,21.38,161.05,25.42,158.9,24.83z"/>
		<path class="st4" d="M55.37,27.49c0.33-5.06,0.57-10.15,1.33-15.14c0-0.01,0-0.02,0-0.03c0,0,0,0,0,0.01c0,0,0,0,0-0.01l0,0
			c0,0,0-0.01,0-0.01c0,0,0,0.01,0,0.01c0-0.02,0.01-0.05,0.01-0.08c0,0.01,0,0.01,0,0.02c0-0.01,0-0.01,0-0.02s0-0.02,0-0.02
			c0,0,0-0.01,0-0.01c0-0.01,0-0.01,0-0.02c0,0,0,0.01,0,0.01c0-0.01,0-0.02,0-0.03c0,0,0,0.01,0,0.01
			c0.01-0.06,0.02-0.13,0.03-0.19c0.01-0.06,0.02-0.12,0.03-0.17c0,0.01,0,0.03,0,0.05c0.01-0.06,0.01-0.11,0.03-0.17
			c0-0.01,0-0.02,0-0.03c0,0,0,0.01,0,0.02c0-0.01,0-0.02,0-0.03c0-0.01,0.01-0.03,0.01-0.05c0,0,0-0.01,0-0.01c0,0,0,0,0-0.01v0
			c0,0,0-0.01,0-0.01c0,0,0-0.01,0-0.01c0,0,0,0,0,0c0-0.02,0.01-0.05,0.01-0.07c0,0,0,0.01,0,0.01c0,0,0-0.01,0-0.01
			c0-0.01,0-0.01,0-0.02c0.01-0.09,0.03-0.18,0.04-0.28c0.08,0.07,0.15,0.15,0.21,0.25c0.31,0.41,0.45,0.93,0.47,1.51
			c0.07,2.56,0.08,5.12,0.09,7.69c0.33,4.27,0.51,8.56,0.61,12.85c-0.05,1.06,0.2,2.37-0.05,3.4c-0.01-0.01-0.02-0.01-0.03-0.02
			c-0.47-0.28-1.06-0.28-1.52,0.06c-0.33,0.24-0.65,0.53-0.89,0.91c-0.19,0.3-0.34,0.63-0.47,0.99c-0.02,0.05-0.04,0.1-0.05,0.15
			c-0.24,0.23-0.46,0.49-0.66,0.79c-0.04,0.06-0.08,0.12-0.12,0.18C54.76,35.8,55.1,31.65,55.37,27.49z"/>
		<path class="st4" d="M56.72,12.19C56.72,12.19,56.72,12.19,56.72,12.19C56.72,12.19,56.72,12.19,56.72,12.19z"/>
		<path class="st4" d="M56.82,11.57C56.82,11.57,56.82,11.58,56.82,11.57c0,0.01,0,0.01,0,0.02C56.82,11.58,56.82,11.58,56.82,11.57
			z"/>
		<path class="st4" d="M56.83,11.48c0,0.01,0,0.01,0,0.02C56.83,11.49,56.83,11.49,56.83,11.48z"/>
		<path class="st4" d="M56.81,11.65C56.81,11.65,56.81,11.65,56.81,11.65c0,0.01,0,0.01,0,0.01C56.81,11.66,56.81,11.65,56.81,11.65
			z"/>
		<path class="st4" d="M56.81,11.61C56.81,11.61,56.81,11.61,56.81,11.61c0,0.01,0,0.03-0.01,0.04
			C56.81,11.64,56.81,11.62,56.81,11.61z"/>
		<path class="st4" d="M56.82,11.59L56.82,11.59c0,0.01,0,0.01,0,0.02c0,0,0,0,0,0C56.81,11.6,56.81,11.6,56.82,11.59z"/>
		<path class="st4" d="M74.04,45.11c-0.16-0.31-0.31-0.63-0.46-0.94c-0.46-1.52-0.2-3.28-0.04-4.88c0.13-1.95,0.22-3.9,0.34-5.85
			c-1.01-1.64-0.89-3.85-0.89-5.83c-0.02-1.74-0.05-3.49-0.05-5.23c0.37-2.01,0.73-4.03,1.14-6.03c0.07,0.45,0.14,0.89,0.21,1.34
			c0.21,1.89,0.38,3.79,0.52,5.68c0.14,1.93,0.2,3.87,0.25,5.8c0.03,1.79,0.04,3.57,0.07,5.35c0.02,1.63,0.12,3.25,0.17,4.88
			c0,0.73-0.02,1.45-0.05,2.18c-0.12,1.4-0.26,2.8-0.46,4.18C74.55,45.63,74.31,45.42,74.04,45.11z"/>
		<path class="st4" d="M75.27,41.19c-0.01,0.1-0.02,0.2-0.02,0.3C75.26,41.38,75.26,41.28,75.27,41.19z"/>
		<path class="st4" d="M71.98,40.89c-0.68-1.39-1.37-2.77-2.11-4.11c0.26-0.95,0.48-1.91,0.69-2.88c0.49-2.26,0.99-4.53,1.46-6.8
			c-0.01,0.07-0.02,0.13-0.03,0.19c2.62-1.28,3.38,4.76,1.67,6.45c0.19,1.14,0.38,2.37,0.06,3.49c0.47,1.62-0.24,3.44-1.31,4.53
			C72.27,41.48,72.13,41.19,71.98,40.89z"/>
		<path class="st4" d="M74.55,44.68c-0.26-0.04-0.52-0.08-0.78-0.12c-0.6-1.22-1.19-2.45-1.79-3.67c-0.68-1.38-1.37-2.77-2.1-4.11
			c0.25-0.94,0.48-1.9,0.69-2.87c0.72-3.29,1.45-6.59,2.06-9.92c0.47-2.55,0.92-5.11,1.44-7.64c0.07,0.44,0.14,0.89,0.21,1.33
			c0.21,1.89,0.38,3.79,0.52,5.69c0.14,1.93,0.2,3.87,0.25,5.8c0.04,1.79,0.05,3.57,0.08,5.35c0.02,1.63,0.11,3.25,0.17,4.88
			c0,0.72-0.02,1.45-0.05,2.18c-0.08,1.04-0.19,2.07-0.31,3.09c-0.06,0.01-0.13,0.01-0.19,0.01C74.68,44.69,74.62,44.69,74.55,44.68
			z"/>
		<path class="st4" d="M72.07,43.69c0.01,0.01,0.01,0.03,0.01,0.04C72.09,43.71,72.08,43.7,72.07,43.69z"/>
		<path class="st4" d="M75.27,41.19c-0.01,0.1-0.02,0.2-0.03,0.3C75.26,41.38,75.26,41.28,75.27,41.19z"/>
		<path class="st4" d="M69.3,35.76c0.05-0.55,0.1-1.09,0.15-1.64c0.14-1.47,0.3-2.95,0.47-4.42c0.16-1.48,0.35-2.95,0.54-4.43
			c0.17-1.32,0.4-2.62,0.6-3.93c-0.01,0.09-0.03,0.18-0.05,0.28c0.46-2.53,0.9-5.07,1.43-7.58c0.15-0.7,0.29-1.39,0.45-2.09
			c0.15-0.02,0.3-0.07,0.45-0.11c0.01,0.07,0.02,0.13,0.03,0.2c0.29,1.88,0.63,3.76,0.91,5.65c0.21,1.89,0.38,3.79,0.52,5.68
			c0.14,1.94,0.2,3.87,0.25,5.81c0.03,1.79,0.05,3.57,0.07,5.35c0.01,1.02,0.05,2.05,0.1,3.07c-0.18-0.19-0.33-0.43-0.42-0.74
			c-0.94-0.33-1.22-1.59-1.18-2.76c-0.09-2.19-0.45-4.31-0.87-6.42c-0.08,3.05-0.14,6.1-0.26,9.16c-0.01,0.94-0.5,1.82-1.19,2.05
			c-0.02,0.16-0.05,0.31-0.08,0.47C70.61,38.14,69.98,36.93,69.3,35.76z"/>
		<path class="st4" d="M55.37,27.49c0.33-5.06,0.58-10.15,1.33-15.14c0,0,0-0.01,0.01-0.02l0,0c0.01-0.04,0.01-0.07,0.02-0.11
			c0,0.01,0,0.03-0.01,0.05c0-0.01,0.01-0.03,0.01-0.05c0,0,0-0.01,0-0.01c0,0,0,0,0,0c0.01-0.07,0.02-0.14,0.03-0.21
			c0.01-0.04,0.02-0.08,0.03-0.13c0,0,0-0.01,0-0.01c0,0,0-0.01,0-0.02c0.01-0.05,0.01-0.09,0.02-0.14c0,0,0-0.01,0-0.02
			c0,0,0,0,0,0c0,0,0,0,0,0c0,0,0,0,0-0.01v0v0c0,0,0,0,0,0c0,0,0-0.01,0-0.01c0-0.01,0-0.02,0.01-0.04c0-0.01,0-0.02,0-0.03
			c0,0,0,0,0,0c0,0,0,0,0-0.01c0,0,0,0,0,0s0,0,0,0c0,0,0,0,0-0.01v0c0.17-1.09,0.36-2.18,0.55-3.27c0.05,0.28,0.09,0.56,0.14,0.84
			c0.13,0.81,0.27,1.62,0.41,2.43c0.04,0.35,0.08,0.69,0.12,1.04c0.03,0.29,0.06,0.58,0.09,0.87c-0.01,2.43-0.15,4.86-0.12,7.28
			c-0.06,4.43-0.15,8.85-0.39,13.27c-0.03,0.46-0.2,0.88-0.46,1.2c0,0.49-0.01,0.98-0.01,1.46c-0.17,0.04-0.33,0.11-0.47,0.22
			c-0.33,0.24-0.65,0.53-0.89,0.91c-0.19,0.3-0.34,0.63-0.47,0.99c-0.02,0.05-0.03,0.09-0.05,0.14c-0.24,0.23-0.46,0.5-0.66,0.79
			c-0.04,0.06-0.08,0.13-0.12,0.19C54.76,35.8,55.1,31.65,55.37,27.49z"/>
		<path class="st4" d="M56.78,11.86C56.78,11.86,56.78,11.86,56.78,11.86C56.77,11.87,56.77,11.87,56.78,11.86
			C56.77,11.86,56.78,11.86,56.78,11.86z"/>
		<path class="st4" d="M56.78,11.85C56.78,11.86,56.78,11.86,56.78,11.85C56.78,11.86,56.78,11.86,56.78,11.85z"/>
		<path class="st4" d="M56.78,11.85c0-0.01,0-0.01,0-0.02C56.78,11.84,56.78,11.85,56.78,11.85L56.78,11.85
			C56.78,11.85,56.78,11.85,56.78,11.85C56.78,11.85,56.78,11.85,56.78,11.85z"/>
		<path class="st4" d="M56.81,11.66C56.81,11.66,56.81,11.66,56.81,11.66C56.81,11.66,56.81,11.66,56.81,11.66
			C56.81,11.66,56.81,11.66,56.81,11.66z"/>
		<path class="st4" d="M56.81,11.62C56.81,11.62,56.81,11.62,56.81,11.62c0,0.02,0,0.03-0.01,0.04
			C56.81,11.64,56.81,11.63,56.81,11.62z"/>
		<path class="st4" d="M56.82,11.58C56.82,11.58,56.82,11.58,56.82,11.58C56.82,11.59,56.82,11.59,56.82,11.58
			C56.82,11.59,56.82,11.58,56.82,11.58z"/>
		<path class="st4" d="M56.86,11.32c-0.01,0.06-0.02,0.13-0.03,0.19C56.84,11.45,56.85,11.38,56.86,11.32z"/>
		<path class="st4" d="M54.83,5.14c0.22-0.66,0.61-1.03,1.02-1.14C55.49,4.93,55.1,5.81,54.7,6.7C54.69,6.17,54.72,5.65,54.83,5.14z
			"/>
		<path class="st4" d="M54.84,43.82c-1.53-0.64-0.78-2.88-0.46-4.31c1.14-4.26,0.73-8.79,1-13.21c0.16-2.55,0.34-5.1,0.51-7.65
			c0.15-2.28,0.24-4.65,0.36-6.83c0.03-0.86,0.03-1.95,0.56-2.54c0.19-0.26,0.41-0.41,0.64-0.46c0.02,0.11,0.04,0.22,0.06,0.33
			c0.26,1.54,0.52,3.08,0.78,4.61c0.5,3,0.99,6,1.46,9c0.25,3.31,0.56,6.6,1.05,9.86c0.31,1.49,0.66,3.6-0.78,4.24
			c0.25,1.56-0.88,2.8-1.48,4c-0.19,1.61-1.29,3.18-2.63,2.72c-0.21,0.19-0.47,0.3-0.73,0.3C55.06,43.88,54.95,43.86,54.84,43.82z
			 M57.62,37.39c0.16-0.26,0.32-0.53,0.5-0.79c0.05-0.08,0.1-0.16,0.16-0.23c0.01-0.01,0.02-0.03,0.03-0.04
			c-0.17-0.23-0.3-0.51-0.38-0.82C57.84,36.14,57.74,36.77,57.62,37.39z"/>
		<path class="st4" d="M55.23,45.13c-0.01-0.14-0.04-0.29-0.03-0.44c0-0.04,0.01-0.08,0.01-0.13c-0.91-0.16-1.3-1.78-0.62-2.59
			c0.49-0.59,1.09-1.11,1.51-1.82c0.78-1.03,3.36-7.57,4.6-5.3c0.23-0.1,0.45-0.12,0.66-0.09c0.05,0.55,0.1,1.09,0.15,1.64
			c0.06,0.82,0.12,1.65,0.17,2.47c-0.83,0.91-1.75,1.72-2.56,2.68c-1.09,1.33-2.63,2.05-3.41,3.72c-0.06,0.07-0.14,0.1-0.22,0.1
			C55.37,45.38,55.25,45.3,55.23,45.13z"/>
		<path class="st4" d="M75.12,47.22c0,0.01,0.01,0.01,0.01,0.02c-1.09-2.08-2.11-4.23-3.15-6.35c-0.14-0.28-0.28-0.57-0.42-0.85
			c0.38,0.44,0.67,1.05,0.93,1.59c0.73,0.34,1.13,1.29,1.52,2.11c0.46,1.01,1.03,1.99,1.17,3.18c0.02,0.15,0.02,0.3,0.01,0.45
			C75.17,47.32,75.15,47.27,75.12,47.22z"/>
		<path class="st4" d="M72.07,43.69c0.01,0.01,0.01,0.03,0.01,0.04C72.09,43.72,72.08,43.7,72.07,43.69z"/>
		<path class="st4" d="M72.79,42.54c0.2-5.61,0.03-11.21-0.17-16.81c-0.52,3.72-1.13,7.41-1.76,11.1c-0.03,0.41-0.18,0.76-0.41,1.02
			c-0.49-0.94-1-1.86-1.54-2.76l0-0.03l0.01-0.17l0.01-0.18l0.01-0.18l0.01-0.19l0.01-0.19l0.01-0.19l0.01-0.19l0.01-0.19l0.02-0.2
			l0.02-0.19L69.06,33l0.02-0.2l0.02-0.19l0.02-0.19l0.02-0.18l0.02-0.18l0.02-0.18l0.02-0.17l0.02-0.17l0.02-0.17l0.03-0.17
			l0.03-0.18l0.03-0.18l0.03-0.18l0.03-0.19l0.03-0.2l0.03-0.21l0.04-0.22l0.04-0.22l0.04-0.22l0.04-0.23l0.04-0.23l0.04-0.24
			l0.04-0.24l0.04-0.24l0.04-0.24l0.03-0.23l0.03-0.23l0.03-0.23l0.03-0.22l0.03-0.22l0.03-0.22l0.03-0.21l0.03-0.21l0.03-0.2
			l0.03-0.2l0.03-0.2l0.03-0.2l0.03-0.2l0.02-0.2l0.03-0.2l0.03-0.2l0.03-0.2l0.03-0.21l0.03-0.2l0.03-0.21l0.03-0.21l0.03-0.2
			l0.03-0.2l0.02-0.2l0.03-0.2l0.03-0.19l0.03-0.19l0.02-0.18l0.03-0.18l0.02-0.18l0.03-0.18l0.02-0.18l0.03-0.17l0.02-0.17
			l0.03-0.17l0.02-0.17l0.03-0.17l0.03-0.17l0.03-0.17l0.03-0.17l0.03-0.18l0.03-0.18l0.03-0.18l0.03-0.19l0.03-0.19l0.03-0.19
			l0.03-0.19l0.03-0.19l0.03-0.19l0.03-0.19l0.04-0.19l0.03-0.19l0.04-0.19l0.04-0.19l0.04-0.19l0.04-0.2l0.04-0.19l0.04-0.2
			l0.04-0.2l0.04-0.21l0.04-0.21l0.04-0.22l0.04-0.22l0.05-0.22l0.05-0.22l0.05-0.23l0.05-0.23l0.05-0.23l0.05-0.23l0.05-0.23
			l0.05-0.23l0.05-0.23l0.04-0.23l0.04-0.22l0.04-0.22l0.04-0.22l0.04-0.21l0.04-0.21l0.04-0.21l0.04-0.21l0.04-0.21l0.04-0.21
			l0.04-0.21l0.04-0.22l0.04-0.22l0.04-0.22l0.04-0.22l0.04-0.22l0.04-0.22l0.04-0.22l0.04-0.22l0.03-0.23l0.04-0.22l0.03-0.22
			l0.04-0.22l0.03-0.22l0.03-0.22l0.03-0.22l0.03-0.18c0.65,0.25,1.24,1.02,1.37,1.96c1.13,5.26,1.18,10.86,1.45,16.26
			c0.26,4.96,0.52,9.87,0.54,14.84c0.01,2,0.33,5.44-1.47,5.92C74.18,45.42,73.49,43.98,72.79,42.54z"/>
		<path class="st4" d="M60.73,37.22c-0.38-2.23-0.01-4.65-0.22-6.95c-0.07-1.43-0.15-2.8-0.25-4.14c0.26,1.82,0.51,3.64,0.76,5.47
			c0.18,1.6,0.36,3.21,0.49,4.82c0.05,0.66,0.1,1.32,0.14,1.98C61.25,38.2,60.91,37.81,60.73,37.22z"/>
		<path class="st4" d="M57.57,28.13c-0.15-2.86,0.09-5.77-0.09-8.63c-0.29-4.01-1.35-8.39-0.3-12.3c0.11,0.66,0.22,1.31,0.33,1.96
			c0.26,1.54,0.52,3.08,0.78,4.61c0.1,0.59,0.2,1.17,0.29,1.76c0.03,3.92-0.13,7.82-0.59,11.71c0.41-0.05,0.27,0.48,0.13,0.77
			c-0.03,0.22-0.19,0.38-0.33,0.38C57.69,28.38,57.6,28.31,57.57,28.13z"/>
		<path class="st4" d="M60.35,21.04c0,0.01,0,0.01,0,0.02C60.35,21.06,60.35,21.05,60.35,21.04z"/>
		<path class="st4" d="M60.34,21.02c0,0,0,0.01,0,0.01c0,0,0,0,0,0C60.35,21.03,60.35,21.03,60.34,21.02z"/>
		<path class="st4" d="M60.34,20.97c0,0.01,0,0.03,0.01,0.04c0,0,0,0,0,0C60.34,21.01,60.34,20.99,60.34,20.97z"/>
	</g>
</g>
<g id="Hituji">
</g>
</svg>
